<?xml version="1.0" encoding="utf-8" standalone="yes"?>
<!DOCTYPE svg PUBLIC "-//W3C//DTD SVG 1.1//EN" "http://www.w3.org/Graphics/SVG/1.1/DTD/svg11.dtd">
<svg width="816" height="600" viewBox="0 0 816 600" style="fill:none;stroke:none;fill-rule:evenodd;clip-rule:evenodd;stroke-linecap:round;stroke-linejoin:round;stroke-miterlimit:1.5;" version="1.1" xmlns="http://www.w3.org/2000/svg" xmlns:xlink="http://www.w3.org/1999/xlink"><style class="text-font-style fontImports" data-font-family="Roboto">@import url('https://fonts.googleapis.com/css2?family=Roboto:wght@400;700&amp;display=block');</style><g id="items" style="isolation: isolate"><g id="blend" style="mix-blend-mode: normal"><g id="g-root-cp_0_g-0_1ums4jj1fxudqe-fill" data-item-order="-423899" transform="translate(62.21098327636719, 218)"></g><g id="g-root-cp_1_g-1_1_1hby39b1fxuc5k-fill" data-item-order="-423888" transform="translate(56, 161)"><g id="cp_1_g-1_1_1hby39b1fxuc5k-fill" stroke="none" fill="#4e88e7"><g><path d="M 34 151C 34.000002 187.450795 63.549208 217.000002 100.000002 217.000002C 136.450795 217.000002 166.000002 187.450795 166.000002 151.000002C 166.000002 114.549208 136.450795 85.000002 100.000002 85.000002C 63.549208 85.000002 34.000002 114.549208 34.000002 151.000002M 10 151C 10 154.313709 12.686292 157 16 157C 19.313709 157 22 154.313709 22 151C 22 147.686292 19.313709 145 16 145C 12.686292 145 10 147.686292 10 151"></path></g></g><g id="cp_1_g-1_1_1hby39b1fxuc5k-fill" stroke="none" fill="#4e88e7"><g><path d="M 109 19C 109 23.9706 104.9706 28 100 28C 95.0294 28 91 23.9706 91 19C 91 14.0294 95.0294 10 100 10C 104.9706 10 109 14.0294 109 19Z"></path></g></g></g><g id="g-root-cp_2_g-2_1cw4l4v1fxucxu-fill" data-item-order="-423876" transform="translate(224, 236)"><g id="cp_2_g-2_1cw4l4v1fxucxu-fill" stroke="none" fill="#1eabda"><g><path d="M 34 76C 34.000002 112.450795 63.549208 142.000002 100.000002 142.000002C 136.450795 142.000002 166.000002 112.450795 166.000002 76.000002C 166.000002 39.549208 136.450795 10.000002 100.000002 10.000002C 63.549208 10.000002 34.000002 39.549208 34.000002 76.000002M 10 76C 10 79.313709 12.686292 82 16 82C 19.313709 82 22 79.313709 22 76C 22 72.686292 19.313709 70 16 70C 12.686292 70 10 72.686292 10 76"></path></g></g><g id="cp_2_g-2_1cw4l4v1fxucxu-fill" stroke="none" fill="#1eabda"><g><path d="M 109 208C 109 212.9706 104.9706 217 100 217C 95.0294 217 91 212.9706 91 208C 91 203.0294 95.0294 199 100 199C 104.9706 199 109 203.0294 109 208Z"></path></g></g></g><g id="g-root-cp_3_g-3_1_140hkvz1fxudqk-fill" data-item-order="-423864" transform="translate(392, 161)"><g id="cp_3_g-3_1_140hkvz1fxudqk-fill" stroke="none" fill="#3cc583"><g><path d="M 34 151C 34.000002 187.450795 63.549208 217.000002 100.000002 217.000002C 136.450795 217.000002 166.000002 187.450795 166.000002 151.000002C 166.000002 114.549208 136.450795 85.000002 100.000002 85.000002C 63.549208 85.000002 34.000002 114.549208 34.000002 151.000002M 10 151C 10 154.313709 12.686292 157 16 157C 19.313709 157 22 154.313709 22 151C 22 147.686292 19.313709 145 16 145C 12.686292 145 10 147.686292 10 151"></path></g></g><g id="cp_3_g-3_1_140hkvz1fxudqk-fill" stroke="none" fill="#3cc583"><g><path d="M 109 19C 109 23.9706 104.9706 28 100 28C 95.0294 28 91 23.9706 91 19C 91 14.0294 95.0294 10 100 10C 104.9706 10 109 14.0294 109 19Z"></path></g></g></g><g id="g-root-cp_4_g-4_zlajun1fxubd2-fill" data-item-order="-423852" transform="translate(560, 236)"><g id="cp_4_g-4_zlajun1fxubd2-fill" stroke="none" fill="#92bd39"><g><path d="M 34 76C 34.000002 112.450795 63.549208 142.000002 100.000002 142.000002C 136.450795 142.000002 166.000002 112.450795 166.000002 76.000002C 166.000002 39.549208 136.450795 10.000002 100.000002 10.000002C 63.549208 10.000002 34.000002 39.549208 34.000002 76.000002M 10 76C 10 79.313709 12.686292 82 16 82C 19.313709 82 22 79.313709 22 76C 22 72.686292 19.313709 70 16 70C 12.686292 70 10 72.686292 10 76M 178 76C 178 79.313709 180.686292 82 184 82C 187.313709 82 190 79.313709 190 76C 190 72.686292 187.313709 70 184 70C 180.686292 70 178 72.686292 178 76"></path></g></g><g id="cp_4_g-4_zlajun1fxubd2-fill" stroke="none" fill="#92bd39"><g><path d="M 109 208C 109 212.9706 104.9706 217 100 217C 95.0294 217 91 212.9706 91 208C 91 203.0294 95.0294 199 100 199C 104.9706 199 109 203.0294 109 208Z"></path></g></g></g><g id="g-root-cp_-1_line_v5h1q71fxuc5c-fill" data-item-order="-423839" transform="translate(146, 179)"></g><g id="g-root-cp_-1_line_1_v5h1q71fxuc5e-fill" data-item-order="-423835" transform="translate(482, 179)"></g><g id="g-root-cp_-1_line_2_m9u1hb1fxucy4-fill" data-item-order="-423831" transform="translate(314, 368)"></g><g id="g-root-cp_-1_line_3_m9u1hb1fxucy6-fill" data-item-order="-423827" transform="translate(650, 368)"></g><g id="g-root-tx_intervie_4j6i2n1fxuc5l-fill" data-item-order="0" transform="translate(50, 74)"><g id="tx_intervie_4j6i2n1fxuc5l-fill" stroke="none" fill="#3a4455"><g><text style="font: bold 20px Roboto, sans-serif; white-space: pre;" font-weight="bold" font-size="20px" font-family="Roboto, sans-serif"><tspan x="12.64" y="34" dominant-baseline="ideographic">Interview Generation</tspan></text></g></g></g><g id="g-root-tx_feedback_1cy00e71fxubyj-fill" data-item-order="0" transform="translate(398, 74)"><g id="tx_feedback_1cy00e71fxubyj-fill" stroke="none" fill="#374840"><g><text style="font: bold 20px Roboto, sans-serif; white-space: pre;" font-weight="bold" font-size="20px" font-family="Roboto, sans-serif"><tspan x="15.36" y="34" dominant-baseline="ideographic">Feedback Access</tspan></text></g></g></g><g id="g-root-tx_theinter_1q8u1of1fxudje-fill" data-item-order="0" transform="translate(44, 110)"><g id="tx_theinter_1q8u1of1fxudje-fill" stroke="none" fill="#3a4455"><g><text style="font: 15px Roboto, sans-serif; white-space: pre;" font-size="15px" font-family="Roboto, sans-serif"><tspan x="16.78" y="27.71" dominant-baseline="ideographic">The interview is created and </tspan><tspan x="58.02" y="45.71" dominant-baseline="ideographic">made available.</tspan></text></g></g></g><g id="g-root-tx_theuserc_hvvym71fxucqs-fill" data-item-order="0" transform="translate(380, 110)"><g id="tx_theuserc_hvvym71fxucqs-fill" stroke="none" fill="#374840"><g><text style="font: 15px Roboto, sans-serif; white-space: pre;" font-size="15px" font-family="Roboto, sans-serif"><tspan x="17.65" y="27.71" dominant-baseline="ideographic">The user can view feedback </tspan><tspan x="48.6" y="45.71" dominant-baseline="ideographic">after the interview.</tspan></text></g></g></g><g id="g-root-ic_cand_4l1xbz1fxub5x-fill" data-item-order="0" transform="translate(116, 272)"></g><g id="g-root-ic_3_mcyewv1fxvrie-fill" data-item-order="0" transform="translate(284, 272)"></g><g id="g-root-ic_1_1lr54an1fxx633-fill" data-item-order="0" transform="translate(452, 272)"></g><g id="g-root-ic_redo_4g24n31fy5kwd-fill" data-item-order="0" transform="translate(620, 272)"></g><g id="g-root-tx_intervie_4l1xbz1fy5kb2-fill" data-item-order="0" transform="translate(224, 458)"><g id="tx_intervie_4l1xbz1fy5kb2-fill" stroke="none" fill="#32444a"><g><text style="font: bold 20px Roboto, sans-serif; white-space: pre;" font-weight="bold" font-size="20px" font-family="Roboto, sans-serif"><tspan x="17.05" y="34" dominant-baseline="ideographic">Interview Visibility</tspan></text></g></g></g><g id="g-root-tx_intervie_18k1xj31fy5kw8-fill" data-item-order="0" transform="translate(572, 458)"><g id="tx_intervie_18k1xj31fy5kw8-fill" stroke="none" fill="#424736"><g><text style="font: bold 20px Roboto, sans-serif; white-space: pre;" font-weight="bold" font-size="20px" font-family="Roboto, sans-serif"><tspan x="12.81" y="34" dominant-baseline="ideographic">Interview Retake</tspan></text></g></g></g><g id="g-root-tx_theinter_1luvytb1fy5mh3-fill" data-item-order="0" transform="translate(212, 494)"><g id="tx_theinter_1luvytb1fy5mh3-fill" stroke="none" fill="#32444a"><g><text style="font: 15px Roboto, sans-serif; white-space: pre;" font-size="15px" font-family="Roboto, sans-serif"><tspan x="14.08" y="27.71" dominant-baseline="ideographic">The interview appears on the </tspan><tspan x="51.25" y="45.71" dominant-baseline="ideographic">user's dashboard.</tspan></text></g></g></g><g id="g-root-tx_theuserc_v8lf5r1fy5mh5-fill" data-item-order="0" transform="translate(566, 494)"><g id="tx_theuserc_v8lf5r1fy5mh5-fill" stroke="none" fill="#424736"><g><text style="font: 15px Roboto, sans-serif; white-space: pre;" font-size="15px" font-family="Roboto, sans-serif"><tspan x="14.19" y="27.71" dominant-baseline="ideographic">The user can retake the </tspan><tspan x="20.15" y="45.71" dominant-baseline="ideographic">interview for practice.</tspan></text></g></g></g><g id="g-root-cp_0_g-0_1ums4jj1fxudqe-stroke" data-item-order="-423899" transform="translate(62.21098327636719, 218)"><g id="cp_0_g-0_1ums4jj1fxudqe-stroke" fill="none" stroke-linecap="round" stroke-linejoin="round" stroke-miterlimit="4" stroke="#484848" stroke-width="2" stroke-dasharray="5.0, 7.0"><g><path d="M 177.578001 100C 174.501601 143.5917 138.163501 178 93.789001 178C 49.414501 178 13.076501 143.5917 10.000001 100M 345.578 88C 342.5016 44.4083 306.1635 10 261.789 10C 217.4145 10 181.0765 44.4083 178 88M 513.578016 100C 510.501616 143.5917 474.163516 178 429.789016 178C 385.414516 178 349.076516 143.5917 346.000016 100M 681.578016 88C 678.501616 44.4083 642.163516 10 597.789016 10C 553.414516 10 517.076516 44.4083 514.000016 88"></path></g></g></g><g id="g-root-cp_1_g-1_1_1hby39b1fxuc5k-stroke" data-item-order="-423888" transform="translate(56, 161)"><g id="cp_1_g-1_1_1hby39b1fxuc5k-stroke" fill="none" stroke-linecap="round" stroke-linejoin="round" stroke-miterlimit="4" stroke="#ffffff" stroke-width="2"><g><path d="M 34 151C 34.000002 187.450795 63.549208 217.000002 100.000002 217.000002C 136.450795 217.000002 166.000002 187.450795 166.000002 151.000002C 166.000002 114.549208 136.450795 85.000002 100.000002 85.000002C 63.549208 85.000002 34.000002 114.549208 34.000002 151.000002M 10 151C 10 154.313709 12.686292 157 16 157C 19.313709 157 22 154.313709 22 151C 22 147.686292 19.313709 145 16 145C 12.686292 145 10 147.686292 10 151"></path></g></g><g id="cp_1_g-1_1_1hby39b1fxuc5k-stroke" fill="none" stroke-linecap="round" stroke-linejoin="round" stroke-miterlimit="4" stroke="#ffffff" stroke-width="2"><g><path d="M 109 19C 109 23.9706 104.9706 28 100 28C 95.0294 28 91 23.9706 91 19C 91 14.0294 95.0294 10 100 10C 104.9706 10 109 14.0294 109 19Z"></path></g></g></g><g id="g-root-cp_2_g-2_1cw4l4v1fxucxu-stroke" data-item-order="-423876" transform="translate(224, 236)"><g id="cp_2_g-2_1cw4l4v1fxucxu-stroke" fill="none" stroke-linecap="round" stroke-linejoin="round" stroke-miterlimit="4" stroke="#ffffff" stroke-width="2"><g><path d="M 34 76C 34.000002 112.450795 63.549208 142.000002 100.000002 142.000002C 136.450795 142.000002 166.000002 112.450795 166.000002 76.000002C 166.000002 39.549208 136.450795 10.000002 100.000002 10.000002C 63.549208 10.000002 34.000002 39.549208 34.000002 76.000002M 10 76C 10 79.313709 12.686292 82 16 82C 19.313709 82 22 79.313709 22 76C 22 72.686292 19.313709 70 16 70C 12.686292 70 10 72.686292 10 76"></path></g></g><g id="cp_2_g-2_1cw4l4v1fxucxu-stroke" fill="none" stroke-linecap="round" stroke-linejoin="round" stroke-miterlimit="4" stroke="#ffffff" stroke-width="2"><g><path d="M 109 208C 109 212.9706 104.9706 217 100 217C 95.0294 217 91 212.9706 91 208C 91 203.0294 95.0294 199 100 199C 104.9706 199 109 203.0294 109 208Z"></path></g></g></g><g id="g-root-cp_3_g-3_1_140hkvz1fxudqk-stroke" data-item-order="-423864" transform="translate(392, 161)"><g id="cp_3_g-3_1_140hkvz1fxudqk-stroke" fill="none" stroke-linecap="round" stroke-linejoin="round" stroke-miterlimit="4" stroke="#ffffff" stroke-width="2"><g><path d="M 34 151C 34.000002 187.450795 63.549208 217.000002 100.000002 217.000002C 136.450795 217.000002 166.000002 187.450795 166.000002 151.000002C 166.000002 114.549208 136.450795 85.000002 100.000002 85.000002C 63.549208 85.000002 34.000002 114.549208 34.000002 151.000002M 10 151C 10 154.313709 12.686292 157 16 157C 19.313709 157 22 154.313709 22 151C 22 147.686292 19.313709 145 16 145C 12.686292 145 10 147.686292 10 151"></path></g></g><g id="cp_3_g-3_1_140hkvz1fxudqk-stroke" fill="none" stroke-linecap="round" stroke-linejoin="round" stroke-miterlimit="4" stroke="#ffffff" stroke-width="2"><g><path d="M 109 19C 109 23.9706 104.9706 28 100 28C 95.0294 28 91 23.9706 91 19C 91 14.0294 95.0294 10 100 10C 104.9706 10 109 14.0294 109 19Z"></path></g></g></g><g id="g-root-cp_4_g-4_zlajun1fxubd2-stroke" data-item-order="-423852" transform="translate(560, 236)"><g id="cp_4_g-4_zlajun1fxubd2-stroke" fill="none" stroke-linecap="round" stroke-linejoin="round" stroke-miterlimit="4" stroke="#ffffff" stroke-width="2"><g><path d="M 34 76C 34.000002 112.450795 63.549208 142.000002 100.000002 142.000002C 136.450795 142.000002 166.000002 112.450795 166.000002 76.000002C 166.000002 39.549208 136.450795 10.000002 100.000002 10.000002C 63.549208 10.000002 34.000002 39.549208 34.000002 76.000002M 10 76C 10 79.313709 12.686292 82 16 82C 19.313709 82 22 79.313709 22 76C 22 72.686292 19.313709 70 16 70C 12.686292 70 10 72.686292 10 76M 178 76C 178 79.313709 180.686292 82 184 82C 187.313709 82 190 79.313709 190 76C 190 72.686292 187.313709 70 184 70C 180.686292 70 178 72.686292 178 76"></path></g></g><g id="cp_4_g-4_zlajun1fxubd2-stroke" fill="none" stroke-linecap="round" stroke-linejoin="round" stroke-miterlimit="4" stroke="#ffffff" stroke-width="2"><g><path d="M 109 208C 109 212.9706 104.9706 217 100 217C 95.0294 217 91 212.9706 91 208C 91 203.0294 95.0294 199 100 199C 104.9706 199 109 203.0294 109 208Z"></path></g></g></g><g id="g-root-cp_-1_line_v5h1q71fxuc5c-stroke" data-item-order="-423839" transform="translate(146, 179)"><g id="cp_-1_line_v5h1q71fxuc5c-stroke" fill="none" stroke-linecap="round" stroke-linejoin="round" stroke-miterlimit="4" stroke="#484848" stroke-width="2"><g><path d="M 10 67L 10 10"></path></g></g></g><g id="g-root-cp_-1_line_1_v5h1q71fxuc5e-stroke" data-item-order="-423835" transform="translate(482, 179)"><g id="cp_-1_line_1_v5h1q71fxuc5e-stroke" fill="none" stroke-linecap="round" stroke-linejoin="round" stroke-miterlimit="4" stroke="#484848" stroke-width="2"><g><path d="M 10 67L 10 10"></path></g></g></g><g id="g-root-cp_-1_line_2_m9u1hb1fxucy4-stroke" data-item-order="-423831" transform="translate(314, 368)"><g id="cp_-1_line_2_m9u1hb1fxucy4-stroke" fill="none" stroke-linecap="round" stroke-linejoin="round" stroke-miterlimit="4" stroke="#484848" stroke-width="2"><g><path d="M 10 67L 10 10"></path></g></g></g><g id="g-root-cp_-1_line_3_m9u1hb1fxucy6-stroke" data-item-order="-423827" transform="translate(650, 368)"><g id="cp_-1_line_3_m9u1hb1fxucy6-stroke" fill="none" stroke-linecap="round" stroke-linejoin="round" stroke-miterlimit="4" stroke="#484848" stroke-width="2"><g><path d="M 10 67L 10 10"></path></g></g></g><g id="g-root-tx_intervie_4j6i2n1fxuc5l-stroke" data-item-order="0" transform="translate(50, 74)"></g><g id="g-root-tx_feedback_1cy00e71fxubyj-stroke" data-item-order="0" transform="translate(398, 74)"></g><g id="g-root-tx_theinter_1q8u1of1fxudje-stroke" data-item-order="0" transform="translate(44, 110)"></g><g id="g-root-tx_theuserc_hvvym71fxucqs-stroke" data-item-order="0" transform="translate(380, 110)"></g><g id="g-root-ic_cand_4l1xbz1fxub5x-stroke" data-item-order="0" transform="translate(116, 272)"><g id="ic_cand_4l1xbz1fxub5x-stroke" fill="none" stroke-linecap="round" stroke-linejoin="round" stroke-miterlimit="4" stroke="#ffffff" stroke-width="2"><g><path d="M 38.827499 68.75L 33.060001 62.389999C 31.736259 60.797318 31.954102 58.433132 33.546593 57.109161C 35.13908 55.785194 37.503304 56.002697 38.827499 57.595001L 43.827499 63.309998L 43.827499 43.75C 43.827499 41.678932 45.506435 40 47.577499 40C 49.648567 40 51.327499 41.678932 51.327499 43.75L 51.327499 55L 58.827499 55C 64.350349 55 68.827499 59.477154 68.827499 65L 68.827499 68.75M 43.202499 19.372499C 43.202499 22.479101 45.720898 24.997499 48.827499 24.997499C 51.934105 24.997499 54.452499 22.479101 54.452499 19.372499C 54.452499 16.265898 51.934105 13.7475 48.827499 13.7475C 45.720898 13.7475 43.202499 16.265898 43.202499 19.372499ZM 60.077499 36.25C 58.766159 31.107437 54.134628 27.508728 48.827499 27.508728C 43.520378 27.508728 38.888844 31.107437 37.577499 36.25ZM 16.952499 29.372499C 16.952499 32.479103 19.470898 34.997498 22.577499 34.997498C 25.684101 34.997498 28.202499 32.479103 28.202499 29.372499C 28.202499 26.2659 25.684101 23.747499 22.577499 23.747499C 19.470898 23.747499 16.952499 26.2659 16.952499 29.372499ZM 33.827499 46.25C 32.516159 41.107437 27.884624 37.508728 22.577499 37.508728C 17.270376 37.508728 12.638844 41.107437 11.3275 46.25ZM 62.577499 11.2475L 60.077499 13.747499M 35.077499 11.2475L 37.577499 13.747499M 63.612499 21.247499L 60.077499 21.247499M 34.0425 21.247499L 37.577499 21.247499"></path></g></g></g><g id="g-root-ic_3_mcyewv1fxvrie-stroke" data-item-order="0" transform="translate(284, 272)"><g id="ic_3_mcyewv1fxvrie-stroke" fill="none" stroke-linecap="round" stroke-linejoin="round" stroke-miterlimit="4" stroke="#ffffff" stroke-width="2"><g><path d="M 48.571426 37.857143L 65.714287 37.857143C 65.714287 37.857143 67.85714 37.857143 67.85714 40L 67.85714 65.714287C 67.85714 65.714287 67.85714 67.85714 65.714287 67.85714L 48.571426 67.85714C 48.571426 67.85714 46.42857 67.85714 46.42857 65.714287L 46.42857 40C 46.42857 40 46.42857 37.857143 48.571426 37.857143M 48.571426 12.142857L 65.714287 12.142857C 65.714287 12.142857 67.85714 12.142857 67.85714 14.285714L 67.85714 22.9C 67.85714 22.9 67.85714 25.042856 65.714287 25.042856L 48.571426 25.042856C 48.571426 25.042856 46.42857 25.042856 46.42857 22.9L 46.42857 14.285714C 46.42857 14.285714 46.42857 12.142857 48.571426 12.142857M 14.285714 12.142857L 31.42857 12.142857C 31.42857 12.142857 33.571426 12.142857 33.571426 14.285714L 33.571426 40C 33.571426 40 33.571426 42.142857 31.42857 42.142857L 14.285714 42.142857C 14.285714 42.142857 12.142857 42.142857 12.142857 40L 12.142857 14.285714C 12.142857 14.285714 12.142857 12.142857 14.285714 12.142857M 14.285714 54.957142L 31.42857 54.957142C 31.42857 54.957142 33.571426 54.957142 33.571426 57.099998L 33.571426 65.714287C 33.571426 65.714287 33.571426 67.85714 31.42857 67.85714L 14.285714 67.85714C 14.285714 67.85714 12.142857 67.85714 12.142857 65.714287L 12.142857 57.099998C 12.142857 57.099998 12.142857 54.957142 14.285714 54.957142"></path></g></g></g><g id="g-root-ic_1_1lr54an1fxx633-stroke" data-item-order="0" transform="translate(452, 272)"><g id="ic_1_1lr54an1fxx633-stroke" fill="none" stroke-linecap="round" stroke-linejoin="round" stroke-miterlimit="4" stroke="#ffffff" stroke-width="2"><g><path d="M 61.002998 22.239824C 55.957752 16.279274 48.42075 12.495117 40 12.495117C 24.809475 12.495117 12.495117 24.809475 12.495117 40C 12.495117 43.190502 13.0383 46.254002 14.03725 49.103249M 19.054649 57.828003C 24.099651 63.7495 31.61125 67.505005 40 67.505005C 55.190502 67.505005 67.505005 55.190502 67.505005 40C 67.505005 36.662251 66.910248 33.463276 65.821503 30.503349M 26.069324 37.412498C 26.069324 33.06525 29.593575 29.541025 33.940948 29.541025C 36.37775 29.541025 38.555752 30.648224 39.999748 32.387001C 41.443501 30.648224 43.62175 29.541025 46.058498 29.541025C 50.40575 29.541025 53.93 33.06525 53.93 37.412498C 53.93 39.788002 52.877998 41.9175 51.2145 43.360752L 41.701752 52.17025C 40.743252 53.057999 39.262749 53.057999 38.304249 52.17025L 28.871 43.43425C 27.157749 41.99025 26.069324 39.828499 26.069324 37.412498ZM 53.095749 23.046875L 61.713749 23.046875L 61.713749 14.42895M 26.904301 56.953003L 18.28635 56.953003L 18.28635 65.570999"></path></g></g></g><g id="g-root-ic_redo_4g24n31fy5kwd-stroke" data-item-order="0" transform="translate(620, 272)"><g id="ic_redo_4g24n31fy5kwd-stroke" fill="none" stroke-linecap="round" stroke-linejoin="round" stroke-miterlimit="4" stroke="#ffffff" stroke-width="2"><g><path d="M 66.25 11.245L 66.25 28.745001L 48.75 28.745001M 66.25 28.75C 56.85862 15.833444 38.82053 12.882282 25.8025 22.1325C 18.292919 27.49844 13.813704 36.141491 13.759257 45.371017C 13.704812 54.600544 18.081749 63.295837 25.5275 68.75"></path></g></g></g><g id="g-root-tx_intervie_4l1xbz1fy5kb2-stroke" data-item-order="0" transform="translate(224, 458)"></g><g id="g-root-tx_intervie_18k1xj31fy5kw8-stroke" data-item-order="0" transform="translate(572, 458)"></g><g id="g-root-tx_theinter_1luvytb1fy5mh3-stroke" data-item-order="0" transform="translate(212, 494)"></g><g id="g-root-tx_theuserc_v8lf5r1fy5mh5-stroke" data-item-order="0" transform="translate(566, 494)"></g></g></g><path id="wdcbfgg1hbpj46" d="M65.283 12.757a.35.35 0 0 0 .584.157l5.203-5.141-6.183 3.523.396 1.461zm-2.216-11.7a.35.35 0 0 0-.522.305v3.111l3.276-1.868-2.754-1.548zm3.728 2.105l-4.25 2.421v2.445l6.391-3.644-2.141-1.222zm4.708 3.303a.35.35 0 0 0 0-.609l-1.592-.9-7.365 4.199v1.782a.35.35 0 0 0 .523.305l8.435-4.777z M44.542 2.513c0-.433.355-.783.792-.783s.792.35.792.783-.355.783-.792.783-.792-.35-.792-.783zm59.171 0c0-.433.355-.783.792-.783s.792.35.792.783-.355.783-.792.783-.792-.35-.792-.783zm-85.951 7.636h-1.27v-.487c-.276.201-.864.609-1.881.609-1.202 0-2.274-.794-2.137-2.078.118-1.106 1.153-1.584 1.848-1.727l2.17-.345c0-.539-.29-.956-1.064-1.006s-1.21.305-1.571 1.017l-1.124-.605c1.218-2.631 5.029-1.764 5.029.414v4.207zm-1.27-2.86c.006.396-.062 1.112-.819 1.59-.587.37-1.841.299-1.903-.395-.049-.555.461-.791.906-.898l1.816-.297zm72.662 2.86h-1.27v-.487c-.276.201-.864.609-1.881.609-1.202 0-2.274-.794-2.137-2.078.118-1.106 1.153-1.584 1.848-1.727l2.17-.345c0-.539-.29-.956-1.064-1.006s-1.21.305-1.571 1.017l-1.124-.605c1.218-2.631 5.029-1.764 5.029.414v4.207zm-1.27-2.86c.006.396-.062 1.112-.82 1.59-.587.37-1.841.299-1.903-.395-.049-.555.461-.791.906-.898l1.816-.297zM99.096 10.149H97.85v-8.45h1.246v4.895l2.68-2.559h1.738l-2.633 2.535 2.715 3.578h-1.556l-2.077-2.707-.867.844v1.863zm6.053-6.114h-1.255v6.113h1.255V4.035zm-59.2 0h-1.255v6.113h1.255V4.035zm5.584 6.113V1.697h1.255v2.695c.361-.346 1-.485 1.47-.485 1.452 0 2.477 1.082 2.457 2.448v3.792h-1.27v-3.68c0-.408-.214-1.339-1.315-1.339-.968 0-1.342.756-1.342 1.339v3.681h-1.255zm-4.76-4.894V4.039h.621a.45.45 0 0 0 .45-.45v-.855h1.251v1.305h1.309v1.215h-1.309v3.109c0 .293.105.664.648.664.365 0 .531-.035.736-.07v1.137s-.361.113-.857.113c-1.398 0-1.777-1.051-1.777-1.788V5.254h-1.071zM36.528 4.039h-1.394l2.191 6.106h1.125l1.234-3.918 1.238 3.918h1.129l2.188-6.106h-1.383l-1.359 3.93-1.256-3.93h-1.124l-1.242 3.957-1.348-3.957zM26.212 7.141c-.02 1.566 1.187 3.129 3.223 3.129 1.566 0 2.383-.918 2.734-1.719L31.172 8c-.315.399-.801 1.094-1.738 1.094-1.145 0-1.825-.781-1.891-1.52h4.625c.074-.284.148-.995-.03-1.559-.336-1.064-1.221-2.102-2.839-2.102s-3.088 1.152-3.088 3.227zm1.363-.75h3.348c-.055-.43-.566-1.301-1.623-1.301a1.79 1.79 0 0 0-1.725 1.301zm-8.758.75c.038 1.758 1.277 3.133 3.145 3.133 1.074 0 1.723-.477 1.961-.672v.547h1.242V1.703h-1.258v2.888c-.414-.36-1.062-.68-1.93-.68-1.91 0-3.198 1.473-3.16 3.23zm1.309-.08c0 1.119.723 1.978 1.836 1.978a1.88 1.88 0 0 0 1.94-1.904c0-1.371-1.011-1.99-1.972-1.99s-1.805.798-1.805 1.916zm76.683-.028C96.771 5.275 95.532 3.9 93.664 3.9c-1.074 0-1.723.477-1.961.672v-.547h-1.242v8.22h1.258V9.583c.414.36 1.063.68 1.93.68 1.91 0 3.198-1.473 3.16-3.23zm-1.309.08c0-1.119-.723-1.978-1.836-1.978a1.88 1.88 0 0 0-1.94 1.904c0 1.371 1.011 1.99 1.972 1.99S95.5 8.231 95.5 7.113zM106.441 10.173V4.036h1.254v.382c.361-.346 1-.485 1.47-.485 1.452 0 2.477 1.082 2.457 2.448v3.792h-1.27V6.492c0-.408-.214-1.339-1.315-1.339-.969 0-1.342.756-1.342 1.339v3.681h-1.254zm-30.383-.021V1.824h1.084l4.215 5.777V1.824h1.32v8.328h-1.094l-4.207-5.796v5.796h-1.319zM5.24 10.149H4V2.377h1.014l2.664 3.597 2.654-3.592h1.03v7.766h-1.256V4.762L7.678 8.068 5.24 4.742v5.407z" transform="translate(20, 566)" fill="#80808088" stroke="none"></path></svg>