<?xml version="1.0" encoding="utf-8" standalone="yes"?>
<!DOCTYPE svg PUBLIC "-//W3C//DTD SVG 1.1//EN" "http://www.w3.org/Graphics/SVG/1.1/DTD/svg11.dtd">
<svg width="912" height="1104" viewBox="0 0 912 1104" style="fill:none;stroke:none;fill-rule:evenodd;clip-rule:evenodd;stroke-linecap:round;stroke-linejoin:round;stroke-miterlimit:1.5;" version="1.1" xmlns="http://www.w3.org/2000/svg" xmlns:xlink="http://www.w3.org/1999/xlink"><style class="text-font-style fontImports" data-font-family="Roboto">@import url('https://fonts.googleapis.com/css2?family=Roboto:wght@400;700&amp;display=block');</style><g id="items" style="isolation: isolate"><g id="blend" style="mix-blend-mode: normal"><g id="g-root-cp_1_g-1_hyezzz1e08emg-fill" data-item-order="-933106" transform="translate(392, 62)"><g id="cp_1_g-1_hyezzz1e08emg-fill" stroke="none" fill="#4e88e7"><g><path d="M 52 94C 75.196 94 94 75.196 94 52C 94 28.804 75.196 10 52 10C 28.804 10 10 28.804 10 52C 10 75.196 28.804 94 52 94ZM 52 78.25C 66.4975 78.25 78.25 66.4975 78.25 52C 78.25 37.5025 66.4975 25.75 52 25.75C 37.5025 25.75 25.75 37.5025 25.75 52C 25.75 66.4975 37.5025 78.25 52 78.25Z"></path></g></g></g><g id="g-root-cp_1_Subtract-with-terminator_4myhmn1e08g7e-fill" data-item-order="-933101" transform="translate(476, 101.375)"></g><g id="g-root-cp_1_Subtract-with-terminator_1_7rglb1e08dtw-fill" data-item-order="-933095" transform="translate(347, 101)"></g><g id="g-root-cp_1_lines_1qd8ibj1e08efi-fill" data-item-order="-933078" transform="translate(426, 145.25)"><g id="cp_1_lines_1qd8ibj1e08efi-fill" stroke="none" fill="#4e88e7"><g><path d="M 18 10.7871C 15.2656 10.7871 12.5913 10.5167 10 10L 10 16L 26 16L 26 10.000001C 23.4087 10.5167 20.7344 10.7871 18 10.7871ZM 18 46.7129C 15.2656 46.7129 12.5913 46.9833 10 47.5L 10 41.5L 26 41.5L 26 47.5C 23.4087 46.9833 20.7344 46.7129 18 46.7129ZM 26 41.5L 26 16L 10 16L 10 41.5L 26 41.5Z"></path></g></g></g><g id="g-root-cp_2_g-2_1lxf0731e08f7s-fill" data-item-order="-933048" transform="translate(392, 182)"><g id="cp_2_g-2_1lxf0731e08f7s-fill" stroke="none" fill="#3cc583"><g><path d="M 52 94C 75.196 94 94 75.196 94 52C 94 28.804 75.196 10 52 10C 28.804 10 10 28.804 10 52C 10 75.196 28.804 94 52 94ZM 52 78.25C 66.4975 78.25 78.25 66.4975 78.25 52C 78.25 37.5025 66.4975 25.75 52 25.75C 37.5025 25.75 25.75 37.5025 25.75 52C 25.75 66.4975 37.5025 78.25 52 78.25Z"></path></g></g></g><g id="g-root-cp_2_Subtract-with-terminator_2_1hhli2n1e08g02-fill" data-item-order="-933043" transform="translate(476, 221.375)"></g><g id="g-root-cp_2_Subtract-with-terminator_3_vb4gjj1e08f7w-fill" data-item-order="-933037" transform="translate(347, 221)"></g><g id="g-root-cp_2_lines_1_qvayf31e08g06-fill" data-item-order="-933026" transform="translate(426, 265.25)"><g id="cp_2_lines_1_qvayf31e08g06-fill" stroke="none" fill="#3cc583"><g><path d="M 18 10.7871C 15.2656 10.7871 12.5913 10.5167 10 10L 10 16L 26 16L 26 10.000001C 23.4087 10.5167 20.7344 10.7871 18 10.7871ZM 18 46.7129C 15.2656 46.7129 12.5913 46.9833 10 47.5L 10 41.5L 26 41.5L 26 47.5C 23.4087 46.9833 20.7344 46.7129 18 46.7129ZM 26 41.5L 26 16L 10 16L 10 41.5L 26 41.5Z"></path></g></g></g><g id="g-root-cp_3_g-3_dkgx4v1e08efc-fill" data-item-order="-933004" transform="translate(392, 302)"><g id="cp_3_g-3_dkgx4v1e08efc-fill" stroke="none" fill="#1eabda"><g><path d="M 52 94C 75.196 94 94 75.196 94 52C 94 28.804 75.196 10 52 10C 28.804 10 10 28.804 10 52C 10 75.196 28.804 94 52 94ZM 52 78.25C 66.4975 78.25 78.25 66.4975 78.25 52C 78.25 37.5025 66.4975 25.75 52 25.75C 37.5025 25.75 25.75 37.5025 25.75 52C 25.75 66.4975 37.5025 78.25 52 78.25Z"></path></g></g></g><g id="g-root-cp_3_Subtract-with-terminator_4_94nf0f1e08f7m-fill" data-item-order="-932999" transform="translate(476, 341.375)"></g><g id="g-root-cp_3_Subtract-with-terminator_5_90erj1e08g0c-fill" data-item-order="-932993" transform="translate(347, 341)"></g><g id="g-root-cp_3_lines_2_1uuaym71e08gli-fill" data-item-order="-932976" transform="translate(426, 385.25)"><g id="cp_3_lines_2_1uuaym71e08gli-fill" stroke="none" fill="#1eabda"><g><path d="M 18 10.7871C 15.2656 10.7871 12.5913 10.5167 10 10L 10 16L 26 16L 26 10.000001C 23.4087 10.5167 20.7344 10.7871 18 10.7871ZM 18 70.7129C 15.2656 70.7129 12.5913 70.9833 10 71.5L 10 65.5L 26 65.5L 26 71.5C 23.4087 70.9833 20.7344 70.7129 18 70.7129ZM 26 65.5L 26 16L 10 16L 10 65.5L 26 65.5Z"></path></g></g></g><g id="g-root-cp_4_g-4_1hjgxbz1e08f0o-fill" data-item-order="-932948" transform="translate(392, 446)"><g id="cp_4_g-4_1hjgxbz1e08f0o-fill" stroke="none" fill="#92bd39"><g><path d="M 52 94C 75.196 94 94 75.196 94 52C 94 28.804 75.196 10 52 10C 28.804 10 10 28.804 10 52C 10 75.196 28.804 94 52 94ZM 52 78.25C 66.4975 78.25 78.25 66.4975 78.25 52C 78.25 37.5025 66.4975 25.75 52 25.75C 37.5025 25.75 25.75 37.5025 25.75 52C 25.75 66.4975 37.5025 78.25 52 78.25Z"></path></g></g></g><g id="g-root-cp_4_Subtract-with-terminator_6_1d3nf7j1e08fsy-fill" data-item-order="-932943" transform="translate(476, 485.375)"></g><g id="g-root-cp_4_Subtract-with-terminator_7_zitsjj1e09ssk-fill" data-item-order="-932937" transform="translate(347, 485)"></g><g id="g-root-cp_4_lines_3_qn6san1e09tla-fill" data-item-order="-932926" transform="translate(426, 529.25)"><g id="cp_4_lines_3_qn6san1e09tla-fill" stroke="none" fill="#92bd39"><g><path d="M 18 10.7871C 15.2656 10.7871 12.5913 10.5167 10 10L 10 16L 26 16L 26 10.000001C 23.4087 10.5167 20.7344 10.7871 18 10.7871ZM 18 46.7129C 15.2656 46.7129 12.5913 46.9833 10 47.5L 10 41.5L 26 41.5L 26 47.5C 23.4087 46.9833 20.7344 46.7129 18 46.7129ZM 26 41.5L 26 16L 10 16L 10 41.5L 26 41.5Z"></path></g></g></g><g id="g-root-cp_5_g-5_hrjs1r1e09v5s-fill" data-item-order="-932904" transform="translate(392, 566)"><g id="cp_5_g-5_hrjs1r1e09v5s-fill" stroke="none" fill="#e0cb15"><g><path d="M 52 94C 75.196 94 94 75.196 94 52C 94 28.804 75.196 10 52 10C 28.804 10 10 28.804 10 52C 10 75.196 28.804 94 52 94ZM 52 78.25C 66.4975 78.25 78.25 66.4975 78.25 52C 78.25 37.5025 66.4975 25.75 52 25.75C 37.5025 25.75 25.75 37.5025 25.75 52C 25.75 66.4975 37.5025 78.25 52 78.25Z"></path></g></g></g><g id="g-root-cp_5_Subtract-with-terminator_8_4gpqrj1e09tky-fill" data-item-order="-932899" transform="translate(476, 605.375)"></g><g id="g-root-cp_5_Subtract-with-terminator_9_1q6dadb1e09uys-fill" data-item-order="-932893" transform="translate(347, 605)"></g><g id="g-root-cp_5_lines_4_1hbcr7j1e09slq-fill" data-item-order="-932878" transform="translate(426, 649.25)"><g id="cp_5_lines_4_1hbcr7j1e09slq-fill" stroke="none" fill="#e0cb15"><g><path d="M 18 10.7871C 15.2656 10.7871 12.5913 10.5167 10 10L 10 16L 26 16L 26 10.000001C 23.4087 10.5167 20.7344 10.7871 18 10.7871ZM 18 46.7129C 15.2656 46.7129 12.5913 46.9833 10 47.5L 10 41.5L 26 41.5L 26 47.5C 23.4087 46.9833 20.7344 46.7129 18 46.7129ZM 26 41.5L 26 16L 10 16L 10 41.5L 26 41.5Z"></path></g></g></g><g id="g-root-cp_6_g-6_18fpqyn1e09u68-fill" data-item-order="-932850" transform="translate(392, 686)"><g id="cp_6_g-6_18fpqyn1e09u68-fill" stroke="none" fill="#de8431"><g><path d="M 52 94C 75.196 94 94 75.196 94 52C 94 28.804 75.196 10 52 10C 28.804 10 10 28.804 10 52C 10 75.196 28.804 94 52 94ZM 52 78.25C 66.4975 78.25 78.25 66.4975 78.25 52C 78.25 37.5025 66.4975 25.75 52 25.75C 37.5025 25.75 25.75 37.5025 25.75 52C 25.75 66.4975 37.5025 78.25 52 78.25Z"></path></g></g></g><g id="g-root-cp_6_Subtract-with-terminator_10_v4vpof1e09sle-fill" data-item-order="-932845" transform="translate(476, 725.375)"></g><g id="g-root-cp_6_Subtract-with-terminator_11_m98pfj1e09te4-fill" data-item-order="-932839" transform="translate(347, 725)"></g><g id="g-root-cp_6_lines_5_htf7b31e09u6e-fill" data-item-order="-932828" transform="translate(426, 769.25)"><g id="cp_6_lines_5_htf7b31e09u6e-fill" stroke="none" fill="#de8431"><g><path d="M 18 10.7871C 15.2656 10.7871 12.5913 10.5167 10 10L 10 16L 26 16L 26 10.000001C 23.4087 10.5167 20.7344 10.7871 18 10.7871ZM 18 46.7129C 15.2656 46.7129 12.5913 46.9833 10 47.5L 10 41.5L 26 41.5L 26 47.5C 23.4087 46.9833 20.7344 46.7129 18 46.7129ZM 26 41.5L 26 16L 10 16L 10 41.5L 26 41.5Z"></path></g></g></g><g id="g-root-cp_7_g-7_4il60v1e09slk-fill" data-item-order="-932804" transform="translate(392, 806)"><g id="cp_7_g-7_4il60v1e09slk-fill" stroke="none" fill="#e55753"><g><path d="M 52 94C 75.196 94 94 75.196 94 52C 94 28.804 75.196 10 52 10C 28.804 10 10 28.804 10 52C 10 75.196 28.804 94 52 94ZM 52 78.25C 66.4975 78.25 78.25 66.4975 78.25 52C 78.25 37.5025 66.4975 25.75 52 25.75C 37.5025 25.75 25.75 37.5025 25.75 52C 25.75 66.4975 37.5025 78.25 52 78.25Z"></path></g></g></g><g id="g-root-cp_7_Subtract-with-terminator_12_2rnwf1e09tdu-fill" data-item-order="-932799" transform="translate(476, 845.375)"></g><g id="g-root-cp_7_Subtract-with-terminator_13_1q88pmn1e09tzg-fill" data-item-order="-932793" transform="translate(347, 845)"></g><g id="g-root-cp_7_lines_6_1cxeocf1e09sem-fill" data-item-order="-932778" transform="translate(426, 889.25)"><g id="cp_7_lines_6_1cxeocf1e09sem-fill" stroke="none" fill="#e55753"><g><path d="M 18 10.7871C 15.2656 10.7871 12.5913 10.5167 10 10L 10 16L 26 16L 26 10.000001C 23.4087 10.5167 20.7344 10.7871 18 10.7871ZM 18 46.7129C 15.2656 46.7129 12.5913 46.9833 10 47.5L 10 41.5L 26 41.5L 26 47.5C 23.4087 46.9833 20.7344 46.7129 18 46.7129ZM 26 41.5L 26 16L 10 16L 10 41.5L 26 41.5Z"></path></g></g></g><g id="g-root-cp_8_g-8_v64nun1e09urs-fill" data-item-order="-932750" transform="translate(392, 926)"><g id="cp_8_g-8_v64nun1e09urs-fill" stroke="none" fill="#ba5de5"><g><path d="M 52 94C 75.196 94 94 75.196 94 52C 94 28.804 75.196 10 52 10C 28.804 10 10 28.804 10 52C 10 75.196 28.804 94 52 94ZM 52 78.25C 66.4975 78.25 78.25 66.4975 78.25 52C 78.25 37.5025 66.4975 25.75 52 25.75C 37.5025 25.75 25.75 37.5025 25.75 52C 25.75 66.4975 37.5025 78.25 52 78.25Z"></path></g></g></g><g id="g-root-cp_8_Subtract-with-terminator_14_hvamkf1e09t6y-fill" data-item-order="-932745" transform="translate(476, 965.375)"></g><g id="g-root-cp_8_Subtract-with-terminator_15_dfh4fz1e09tz8-fill" data-item-order="-932739" transform="translate(347, 965)"></g><g id="g-root-ic_dist_59k8v1e0cohy-fill" data-item-order="0" transform="translate(290, 194)"></g><g id="g-root-tx_initiate_18iu4e71e0cm4s-fill" data-item-order="0" transform="translate(74, 194)"><g id="tx_initiate_18iu4e71e0cm4s-fill" stroke="none" fill="#3cc583"><g><text style="font: bold 20px Roboto, sans-serif; white-space: pre;" font-weight="bold" font-size="20px" font-family="Roboto, sans-serif"><tspan x="16.73" y="34" dominant-baseline="ideographic">Initiate New Interview</tspan></text></g></g></g><g id="g-root-tx_startint_1urrqv31e9tzpd-fill" data-item-order="0" transform="translate(530, 476)"><g id="tx_startint_1urrqv31e9tzpd-fill" stroke="none" fill="#424736"><g><text style="font: 15px Roboto, sans-serif; white-space: pre;" font-size="15px" font-family="Roboto, sans-serif"><tspan x="12" y="30.71" dominant-baseline="ideographic">Start Interview</tspan></text></g></g></g><g id="g-root-tx_userclic_13z8gcf1e9ty4n-fill" data-item-order="0" transform="translate(74, 494)"><g id="tx_userclic_13z8gcf1e9ty4n-fill" stroke="none" fill="#424736"><g><text style="font: 15px Roboto, sans-serif; white-space: pre;" font-size="15px" font-family="Roboto, sans-serif"><tspan x="12.43" y="27.71" dominant-baseline="ideographic">User clicks "Start Interview" to </tspan><tspan x="87.29" y="45.71" dominant-baseline="ideographic">launch the session</tspan></text></g></g></g><g id="g-root-tx_userlogs_hyezzz1e09udd-fill" data-item-order="0" transform="translate(590, 110)"><g id="tx_userlogs_hyezzz1e09udd-fill" stroke="none" fill="#3a4455"><g><text style="font: 15px Roboto, sans-serif; white-space: pre;" font-size="15px" font-family="Roboto, sans-serif"><tspan x="12" y="27.71" dominant-baseline="ideographic">User logs in and accesses the </tspan><tspan x="12" y="45.71" dominant-baseline="ideographic">dashboard</tspan></text></g></g></g><g id="g-root-tx_1_qqb5q71e0cmbv-fill" data-item-order="0" transform="translate(422, 86)"><g id="tx_1_qqb5q71e0cmbv-fill" stroke="none" fill="#4e88e7"><g><text style="font: bold 30px Roboto, sans-serif; white-space: pre;" font-weight="bold" font-size="30px" font-family="Roboto, sans-serif"><tspan x="13.39" y="46" dominant-baseline="ideographic">1</tspan></text></g></g></g><g id="g-root-tx_5_m7yfun1e9wr9j-fill" data-item-order="0" transform="translate(422, 590)"><g id="tx_5_m7yfun1e9wr9j-fill" stroke="none" fill="#e0cb15"><g><text style="font: bold 30px Roboto, sans-serif; white-space: pre;" font-weight="bold" font-size="30px" font-family="Roboto, sans-serif"><tspan x="13.39" y="46" dominant-baseline="ideographic">5</tspan></text></g></g></g><g id="g-root-ic_webc_vbpm7z1e9tzie-fill" data-item-order="0" transform="translate(530, 578)"></g><g id="g-root-tx_activate_1qdtnzz1e9tyq4-fill" data-item-order="0" transform="translate(590, 578)"><g id="tx_activate_1qdtnzz1e9tyq4-fill" stroke="none" fill="#e0cb15"><g><text style="font: bold 20px Roboto, sans-serif; white-space: pre;" font-weight="bold" font-size="20px" font-family="Roboto, sans-serif"><tspan x="12" y="34" dominant-baseline="ideographic">Activate Webcam</tspan></text></g></g></g><g id="g-root-tx_enablewe_4njnb31e9u0i3-fill" data-item-order="0" transform="translate(218, 596)"><g id="tx_enablewe_4njnb31e9u0i3-fill" stroke="none" fill="#46432d"><g><text style="font: 15px Roboto, sans-serif; white-space: pre;" font-size="15px" font-family="Roboto, sans-serif"><tspan x="20.66" y="30.71" dominant-baseline="ideographic">Enable Webcam</tspan></text></g></g></g><g id="g-root-tx_homedash_mcd2v31e09ukv-fill" data-item-order="0" transform="translate(194, 92)"><g id="tx_homedash_mcd2v31e09ukv-fill" stroke="none" fill="#3a4455"><g><text style="font: 15px Roboto, sans-serif; white-space: pre;" font-size="15px" font-family="Roboto, sans-serif"><tspan x="19.65" y="30.71" dominant-baseline="ideographic">Home -&gt; Dashboard</tspan></text></g></g></g><g id="g-root-tx_navigate_1d0j1rz1e09tl4-fill" data-item-order="0" transform="translate(590, 74)"><g id="tx_navigate_1d0j1rz1e09tl4-fill" stroke="none" fill="#4e88e7"><g><text style="font: bold 20px Roboto, sans-serif; white-space: pre;" font-weight="bold" font-size="20px" font-family="Roboto, sans-serif"><tspan x="12" y="34" dominant-baseline="ideographic">Navigate to Dashboard</tspan></text></g></g></g><g id="g-root-tx_userenab_18n64lb1e9txxh-fill" data-item-order="0" transform="translate(590, 614)"><g id="tx_userenab_18n64lb1e9txxh-fill" stroke="none" fill="#46432d"><g><text style="font: 15px Roboto, sans-serif; white-space: pre;" font-size="15px" font-family="Roboto, sans-serif"><tspan x="12" y="27.71" dominant-baseline="ideographic">User enables webcam for video </tspan><tspan x="12" y="45.71" dominant-baseline="ideographic">recording</tspan></text></g></g></g><g id="g-root-ic_moni_4nkypr1e09ssi-fill" data-item-order="0" transform="translate(530, 74)"></g><g id="g-root-tx_recordre_4gofcv1e9wtmo-fill" data-item-order="0" transform="translate(110, 698)"><g id="tx_recordre_4gofcv1e9wtmo-fill" stroke="none" fill="#de8431"><g><text style="font: bold 20px Roboto, sans-serif; white-space: pre;" font-weight="bold" font-size="20px" font-family="Roboto, sans-serif"><tspan x="18.59" y="34" dominant-baseline="ideographic">Record Response</tspan></text></g></g></g><g id="g-root-ic_reco_qp0w5b1e9wsne-fill" data-item-order="0" transform="translate(290, 698)"></g><g id="g-root-tx_userisre_94m3lr1e9zk77-fill" data-item-order="0" transform="translate(50, 998)"><g id="tx_userisre_94m3lr1e9zk77-fill" stroke="none" fill="#4f3d58"><g><text style="font: 15px Roboto, sans-serif; white-space: pre;" font-size="15px" font-family="Roboto, sans-serif"><tspan x="12.54" y="27.71" dominant-baseline="ideographic">User is redirected to the feedback </tspan><tspan x="136.13" y="45.71" dominant-baseline="ideographic">page to submit</tspan></text></g></g></g><g id="g-root-tx_6_vb354v1e9wtfw-fill" data-item-order="0" transform="translate(422, 710)"><g id="tx_6_vb354v1e9wtfw-fill" stroke="none" fill="#de8431"><g><text style="font: bold 30px Roboto, sans-serif; white-space: pre;" font-weight="bold" font-size="30px" font-family="Roboto, sans-serif"><tspan x="13.39" y="46" dominant-baseline="ideographic">6</tspan></text></g></g></g><g id="g-root-tx_4_qun5xb1e9ty4i-fill" data-item-order="0" transform="translate(422, 470)"><g id="tx_4_qun5xb1e9ty4i-fill" stroke="none" fill="#92bd39"><g><text style="font: bold 30px Roboto, sans-serif; white-space: pre;" font-weight="bold" font-size="30px" font-family="Roboto, sans-serif"><tspan x="13.39" y="46" dominant-baseline="ideographic">4</tspan></text></g></g></g><g id="g-root-tx_2_hzny671e0e0ow-fill" data-item-order="0" transform="translate(422, 206)"><g id="tx_2_hzny671e0e0ow-fill" stroke="none" fill="#3cc583"><g><text style="font: bold 30px Roboto, sans-serif; white-space: pre;" font-weight="bold" font-size="30px" font-family="Roboto, sans-serif"><tspan x="13.39" y="46" dominant-baseline="ideographic">2</tspan></text></g></g></g><g id="g-root-tx_recordan_18mjni71e9wruz-fill" data-item-order="0" transform="translate(530, 716)"><g id="tx_recordan_18mjni71e9wruz-fill" stroke="none" fill="#4c4034"><g><text style="font: 15px Roboto, sans-serif; white-space: pre;" font-size="15px" font-family="Roboto, sans-serif"><tspan x="12" y="30.71" dominant-baseline="ideographic">Record Answer</tspan></text></g></g></g><g id="g-root-tx_userpres_1q6yg1r1e9wrup-fill" data-item-order="0" transform="translate(50, 734)"><g id="tx_userpres_1q6yg1r1e9wrup-fill" stroke="none" fill="#4c4034"><g><text style="font: 15px Roboto, sans-serif; white-space: pre;" font-size="15px" font-family="Roboto, sans-serif"><tspan x="34.29" y="27.71" dominant-baseline="ideographic">User presses "Record Answer," </tspan><tspan x="11.81" y="45.71" dominant-baseline="ideographic">speaks, and clicks "Next Question</tspan></text></g></g></g><g id="g-root-ic_3_dcxwov1e9ty4o-fill" data-item-order="0" transform="translate(290, 458)"></g><g id="g-root-tx_7_hydolb1e9zke9-fill" data-item-order="0" transform="translate(422, 830)"><g id="tx_7_hydolb1e9zke9-fill" stroke="none" fill="#e55753"><g><text style="font: bold 30px Roboto, sans-serif; white-space: pre;" font-weight="bold" font-size="30px" font-family="Roboto, sans-serif"><tspan x="13.39" y="46" dominant-baseline="ideographic">7</tspan></text></g></g></g><g id="g-root-ic_flag_1hjflxb1e9wt8g-fill" data-item-order="0" transform="translate(530, 818)"></g><g id="g-root-tx_finalize_dkflq71e9wsna-fill" data-item-order="0" transform="translate(590, 818)"><g id="tx_finalize_dkflq71e9wsna-fill" stroke="none" fill="#e55753"><g><text style="font: bold 20px Roboto, sans-serif; white-space: pre;" font-weight="bold" font-size="20px" font-family="Roboto, sans-serif"><tspan x="12" y="34" dominant-baseline="ideographic">Finalize Session</tspan></text></g></g></g><g id="g-root-tx_endinter_qvw43j1e9wr2d-fill" data-item-order="0" transform="translate(242, 836)"><g id="tx_endinter_qvw43j1e9wr2d-fill" stroke="none" fill="#543a3a"><g><text style="font: 15px Roboto, sans-serif; white-space: pre;" font-size="15px" font-family="Roboto, sans-serif"><tspan x="14.43" y="30.71" dominant-baseline="ideographic">End Interview</tspan></text></g></g></g><g id="g-root-tx_userfill_mgqegv1e0e22r-fill" data-item-order="0" transform="translate(590, 374)"><g id="tx_userfill_mgqegv1e0e22r-fill" stroke="none" fill="#32444a"><g><text style="font: 15px Roboto, sans-serif; white-space: pre;" font-size="15px" font-family="Roboto, sans-serif"><tspan x="12" y="27.71" dominant-baseline="ideographic">User fills out the form to customize </tspan><tspan x="12" y="45.71" dominant-baseline="ideographic">interview questions</tspan></text></g></g></g><g id="g-root-tx_addnew_zqbhkv1e0e1hj-fill" data-item-order="0" transform="translate(530, 212)"><g id="tx_addnew_zqbhkv1e0e1hj-fill" stroke="none" fill="#374840"><g><text style="font: 15px Roboto, sans-serif; white-space: pre;" font-size="15px" font-family="Roboto, sans-serif"><tspan x="12" y="30.71" dominant-baseline="ideographic">+Add New</tspan></text></g></g></g><g id="g-root-tx_usercomp_9lkfz1e9wr2f-fill" data-item-order="0" transform="translate(590, 854)"><g id="tx_usercomp_9lkfz1e9wr2f-fill" stroke="none" fill="#543a3a"><g><text style="font: 15px Roboto, sans-serif; white-space: pre;" font-size="15px" font-family="Roboto, sans-serif"><tspan x="12" y="27.71" dominant-baseline="ideographic">User completes all questions and </tspan><tspan x="12" y="45.71" dominant-baseline="ideographic">clicks "End Interview</tspan></text></g></g></g><g id="g-root-tx_userclic_hwjkqn1e0cm4t-fill" data-item-order="0" transform="translate(50, 230)"><g id="tx_userclic_hwjkqn1e0cm4t-fill" stroke="none" fill="#374840"><g><text style="font: 15px Roboto, sans-serif; white-space: pre;" font-size="15px" font-family="Roboto, sans-serif"><tspan x="17.44" y="27.71" dominant-baseline="ideographic">User clicks "+Add New" to start a </tspan><tspan x="103.61" y="45.71" dominant-baseline="ideographic">new interview setup</tspan></text></g></g></g><g id="g-root-tx_reviewan_zqwn9b1e9zk76-fill" data-item-order="0" transform="translate(98, 938)"><g id="tx_reviewan_zqwn9b1e9zk76-fill" stroke="none" fill="#ba5de5"><g><text style="font: bold 20px Roboto, sans-serif; white-space: pre;" font-weight="bold" font-size="20px" font-family="Roboto, sans-serif"><tspan x="16.34" y="34" dominant-baseline="ideographic">Review and Submit </tspan><tspan x="101.3" y="58" dominant-baseline="ideographic">Feedback</tspan></text></g></g></g><g id="g-root-ic_chec_1lymmyn1e9zmdo-fill" data-item-order="0" transform="translate(290, 938)"></g><g id="g-root-tx_3_1hiug8v1e0feod-fill" data-item-order="0" transform="translate(422, 326)"><g id="tx_3_1hiug8v1e0feod-fill" stroke="none" fill="#1eabda"><g><text style="font: bold 30px Roboto, sans-serif; white-space: pre;" font-weight="bold" font-size="30px" font-family="Roboto, sans-serif"><tspan x="13.39" y="46" dominant-baseline="ideographic">3</tspan></text></g></g></g><g id="g-root-tx_8_mdkpmn1ea105q-fill" data-item-order="0" transform="translate(422, 950)"><g id="tx_8_mdkpmn1ea105q-fill" stroke="none" fill="#ba5de5"><g><text style="font: bold 30px Roboto, sans-serif; white-space: pre;" font-weight="bold" font-size="30px" font-family="Roboto, sans-serif"><tspan x="13.39" y="46" dominant-baseline="ideographic">8</tspan></text></g></g></g><g id="g-root-tx_fillform_940xxb1e0e1hl-fill" data-item-order="0" transform="translate(266, 332)"><g id="tx_fillform_940xxb1e0e1hl-fill" stroke="none" fill="#32444a"><g><text style="font: 15px Roboto, sans-serif; white-space: pre;" font-size="15px" font-family="Roboto, sans-serif"><tspan x="22.12" y="30.71" dominant-baseline="ideographic">Fill Form</tspan></text></g></g></g><g id="g-root-tx_complete_1qehghr1e0e0hu-fill" data-item-order="0" transform="translate(590, 314)"><g id="tx_complete_1qehghr1e0e0hu-fill" stroke="none" fill="#1eabda"><g><text style="font: bold 20px Roboto, sans-serif; white-space: pre;" font-weight="bold" font-size="20px" font-family="Roboto, sans-serif"><tspan x="12" y="34" dominant-baseline="ideographic">Complete Interview </tspan><tspan x="12" y="58" dominant-baseline="ideographic">Details</tspan></text></g></g></g><g id="g-root-tx_feedback_zp17zz1ea0ykt-fill" data-item-order="0" transform="translate(530, 956)"><g id="tx_feedback_zp17zz1ea0ykt-fill" stroke="none" fill="#4f3d58"><g><text style="font: 15px Roboto, sans-serif; white-space: pre;" font-size="15px" font-family="Roboto, sans-serif"><tspan x="12" y="30.71" dominant-baseline="ideographic">Feedback Page</tspan></text></g></g></g><g id="g-root-ic_prof_1ulkben1e0fgg4-fill" data-item-order="0" transform="translate(530, 314)"></g><g id="g-root-tx_beginint_8g5b1e9txji-fill" data-item-order="0" transform="translate(50, 458)"><g id="tx_beginint_8g5b1e9txji-fill" stroke="none" fill="#92bd39"><g><text style="font: bold 20px Roboto, sans-serif; white-space: pre;" font-weight="bold" font-size="20px" font-family="Roboto, sans-serif"><tspan x="20.07" y="34" dominant-baseline="ideographic">Begin Interview Session</tspan></text></g></g></g><g id="g-root-cp_1_g-1_hyezzz1e08emg-stroke" data-item-order="-933106" transform="translate(392, 62)"><g id="cp_1_g-1_hyezzz1e08emg-stroke" fill="none" stroke-linecap="round" stroke-linejoin="round" stroke-miterlimit="4" stroke="#ffffff" stroke-width="2"><g><path d="M 52 94C 75.196 94 94 75.196 94 52C 94 28.804 75.196 10 52 10C 28.804 10 10 28.804 10 52C 10 75.196 28.804 94 52 94ZM 52 78.25C 66.4975 78.25 78.25 66.4975 78.25 52C 78.25 37.5025 66.4975 25.75 52 25.75C 37.5025 25.75 25.75 37.5025 25.75 52C 25.75 66.4975 37.5025 78.25 52 78.25Z"></path></g></g></g><g id="g-root-cp_1_Subtract-with-terminator_4myhmn1e08g7e-stroke" data-item-order="-933101" transform="translate(476, 101.375)"><g id="cp_1_Subtract-with-terminator_4myhmn1e08g7e-stroke" fill="none" stroke-linecap="round" stroke-linejoin="round" stroke-miterlimit="4" stroke="#4e88e7" stroke-width="2"><g><path d="M 49.375 12.625L 10 12.625M 52 10C 53.4488 10 54.625 11.1762 54.625 12.625C 54.625 14.0738 53.4488 15.25 52 15.25C 50.5512 15.25 49.375 14.0738 49.375 12.625C 49.375 11.1762 50.5512 10 52 10Z"></path></g></g></g><g id="g-root-cp_1_Subtract-with-terminator_1_7rglb1e08dtw-stroke" data-item-order="-933095" transform="translate(347, 101)"><g id="cp_1_Subtract-with-terminator_1_7rglb1e08dtw-stroke" fill="none" stroke-linecap="round" stroke-linejoin="round" stroke-miterlimit="4" stroke="#4e88e7" stroke-width="2"><g><path d="M 16 13L 55 13M 13 10C 11.3443 10 10 11.3443 10 13C 10 14.6557 11.3443 16 13 16C 14.6557 16 16 14.6557 16 13C 16 11.3443 14.6557 10 13 10Z"></path></g></g></g><g id="g-root-cp_1_lines_1qd8ibj1e08efi-stroke" data-item-order="-933078" transform="translate(426, 145.25)"><g id="cp_1_lines_1qd8ibj1e08efi-stroke" fill="none" stroke-linecap="round" stroke-linejoin="round" stroke-miterlimit="4" stroke="#ffffff" stroke-width="2"><g><path d="M 10 16L 10 10C 12.5913 10.5167 15.2656 10.7871 18 10.7871C 20.7344 10.7871 23.4087 10.5167 26 10.000001L 26 16M 26 41.5L 26 47.5C 23.4087 46.9833 20.7344 46.7129 18 46.7129C 15.2656 46.7129 12.5913 46.9833 10 47.5L 10 41.5M 26 41.5L 26 16M 10 16L 10 41.5"></path></g></g></g><g id="g-root-cp_2_g-2_1lxf0731e08f7s-stroke" data-item-order="-933048" transform="translate(392, 182)"><g id="cp_2_g-2_1lxf0731e08f7s-stroke" fill="none" stroke-linecap="round" stroke-linejoin="round" stroke-miterlimit="4" stroke="#ffffff" stroke-width="2"><g><path d="M 52 94C 75.196 94 94 75.196 94 52C 94 28.804 75.196 10 52 10C 28.804 10 10 28.804 10 52C 10 75.196 28.804 94 52 94ZM 52 78.25C 66.4975 78.25 78.25 66.4975 78.25 52C 78.25 37.5025 66.4975 25.75 52 25.75C 37.5025 25.75 25.75 37.5025 25.75 52C 25.75 66.4975 37.5025 78.25 52 78.25Z"></path></g></g></g><g id="g-root-cp_2_Subtract-with-terminator_2_1hhli2n1e08g02-stroke" data-item-order="-933043" transform="translate(476, 221.375)"><g id="cp_2_Subtract-with-terminator_2_1hhli2n1e08g02-stroke" fill="none" stroke-linecap="round" stroke-linejoin="round" stroke-miterlimit="4" stroke="#3cc583" stroke-width="2"><g><path d="M 49.375 12.625L 10 12.625M 52 10C 53.4488 10 54.625 11.1762 54.625 12.625C 54.625 14.0738 53.4488 15.25 52 15.25C 50.5512 15.25 49.375 14.0738 49.375 12.625C 49.375 11.1762 50.5512 10 52 10Z"></path></g></g></g><g id="g-root-cp_2_Subtract-with-terminator_3_vb4gjj1e08f7w-stroke" data-item-order="-933037" transform="translate(347, 221)"><g id="cp_2_Subtract-with-terminator_3_vb4gjj1e08f7w-stroke" fill="none" stroke-linecap="round" stroke-linejoin="round" stroke-miterlimit="4" stroke="#3cc583" stroke-width="2"><g><path d="M 16 13L 55 13M 13 10C 11.3443 10 10 11.3443 10 13C 10 14.6557 11.3443 16 13 16C 14.6557 16 16 14.6557 16 13C 16 11.3443 14.6557 10 13 10Z"></path></g></g></g><g id="g-root-cp_2_lines_1_qvayf31e08g06-stroke" data-item-order="-933026" transform="translate(426, 265.25)"><g id="cp_2_lines_1_qvayf31e08g06-stroke" fill="none" stroke-linecap="round" stroke-linejoin="round" stroke-miterlimit="4" stroke="#ffffff" stroke-width="2"><g><path d="M 10 16L 10 10C 12.5913 10.5167 15.2656 10.7871 18 10.7871C 20.7344 10.7871 23.4087 10.5167 26 10.000001L 26 16M 26 41.5L 26 47.5C 23.4087 46.9833 20.7344 46.7129 18 46.7129C 15.2656 46.7129 12.5913 46.9833 10 47.5L 10 41.5M 26 41.5L 26 16M 10 16L 10 41.5"></path></g></g></g><g id="g-root-cp_3_g-3_dkgx4v1e08efc-stroke" data-item-order="-933004" transform="translate(392, 302)"><g id="cp_3_g-3_dkgx4v1e08efc-stroke" fill="none" stroke-linecap="round" stroke-linejoin="round" stroke-miterlimit="4" stroke="#ffffff" stroke-width="2"><g><path d="M 52 94C 75.196 94 94 75.196 94 52C 94 28.804 75.196 10 52 10C 28.804 10 10 28.804 10 52C 10 75.196 28.804 94 52 94ZM 52 78.25C 66.4975 78.25 78.25 66.4975 78.25 52C 78.25 37.5025 66.4975 25.75 52 25.75C 37.5025 25.75 25.75 37.5025 25.75 52C 25.75 66.4975 37.5025 78.25 52 78.25Z"></path></g></g></g><g id="g-root-cp_3_Subtract-with-terminator_4_94nf0f1e08f7m-stroke" data-item-order="-932999" transform="translate(476, 341.375)"><g id="cp_3_Subtract-with-terminator_4_94nf0f1e08f7m-stroke" fill="none" stroke-linecap="round" stroke-linejoin="round" stroke-miterlimit="4" stroke="#1eabda" stroke-width="2"><g><path d="M 49.375 12.625L 10 12.625M 52 10C 53.4488 10 54.625 11.1762 54.625 12.625C 54.625 14.0738 53.4488 15.25 52 15.25C 50.5512 15.25 49.375 14.0738 49.375 12.625C 49.375 11.1762 50.5512 10 52 10Z"></path></g></g></g><g id="g-root-cp_3_Subtract-with-terminator_5_90erj1e08g0c-stroke" data-item-order="-932993" transform="translate(347, 341)"><g id="cp_3_Subtract-with-terminator_5_90erj1e08g0c-stroke" fill="none" stroke-linecap="round" stroke-linejoin="round" stroke-miterlimit="4" stroke="#1eabda" stroke-width="2"><g><path d="M 16 13L 55 13M 13 10C 11.3443 10 10 11.3443 10 13C 10 14.6557 11.3443 16 13 16C 14.6557 16 16 14.6557 16 13C 16 11.3443 14.6557 10 13 10Z"></path></g></g></g><g id="g-root-cp_3_lines_2_1uuaym71e08gli-stroke" data-item-order="-932976" transform="translate(426, 385.25)"><g id="cp_3_lines_2_1uuaym71e08gli-stroke" fill="none" stroke-linecap="round" stroke-linejoin="round" stroke-miterlimit="4" stroke="#ffffff" stroke-width="2"><g><path d="M 10 16L 10 10C 12.5913 10.5167 15.2656 10.7871 18 10.7871C 20.7344 10.7871 23.4087 10.5167 26 10.000001L 26 16M 26 65.5L 26 71.5C 23.4087 70.9833 20.7344 70.7129 18 70.7129C 15.2656 70.7129 12.5913 70.9833 10 71.5L 10 65.5M 26 65.5L 26 16M 10 16L 10 65.5"></path></g></g></g><g id="g-root-cp_4_g-4_1hjgxbz1e08f0o-stroke" data-item-order="-932948" transform="translate(392, 446)"><g id="cp_4_g-4_1hjgxbz1e08f0o-stroke" fill="none" stroke-linecap="round" stroke-linejoin="round" stroke-miterlimit="4" stroke="#ffffff" stroke-width="2"><g><path d="M 52 94C 75.196 94 94 75.196 94 52C 94 28.804 75.196 10 52 10C 28.804 10 10 28.804 10 52C 10 75.196 28.804 94 52 94ZM 52 78.25C 66.4975 78.25 78.25 66.4975 78.25 52C 78.25 37.5025 66.4975 25.75 52 25.75C 37.5025 25.75 25.75 37.5025 25.75 52C 25.75 66.4975 37.5025 78.25 52 78.25Z"></path></g></g></g><g id="g-root-cp_4_Subtract-with-terminator_6_1d3nf7j1e08fsy-stroke" data-item-order="-932943" transform="translate(476, 485.375)"><g id="cp_4_Subtract-with-terminator_6_1d3nf7j1e08fsy-stroke" fill="none" stroke-linecap="round" stroke-linejoin="round" stroke-miterlimit="4" stroke="#92bd39" stroke-width="2"><g><path d="M 49.375 12.625L 10 12.625M 52 10C 53.4488 10 54.625 11.1762 54.625 12.625C 54.625 14.0738 53.4488 15.25 52 15.25C 50.5512 15.25 49.375 14.0738 49.375 12.625C 49.375 11.1762 50.5512 10 52 10Z"></path></g></g></g><g id="g-root-cp_4_Subtract-with-terminator_7_zitsjj1e09ssk-stroke" data-item-order="-932937" transform="translate(347, 485)"><g id="cp_4_Subtract-with-terminator_7_zitsjj1e09ssk-stroke" fill="none" stroke-linecap="round" stroke-linejoin="round" stroke-miterlimit="4" stroke="#92bd39" stroke-width="2"><g><path d="M 16 13L 55 13M 13 10C 11.3443 10 10 11.3443 10 13C 10 14.6557 11.3443 16 13 16C 14.6557 16 16 14.6557 16 13C 16 11.3443 14.6557 10 13 10Z"></path></g></g></g><g id="g-root-cp_4_lines_3_qn6san1e09tla-stroke" data-item-order="-932926" transform="translate(426, 529.25)"><g id="cp_4_lines_3_qn6san1e09tla-stroke" fill="none" stroke-linecap="round" stroke-linejoin="round" stroke-miterlimit="4" stroke="#ffffff" stroke-width="2"><g><path d="M 10 16L 10 10C 12.5913 10.5167 15.2656 10.7871 18 10.7871C 20.7344 10.7871 23.4087 10.5167 26 10.000001L 26 16M 26 41.5L 26 47.5C 23.4087 46.9833 20.7344 46.7129 18 46.7129C 15.2656 46.7129 12.5913 46.9833 10 47.5L 10 41.5M 26 41.5L 26 16M 10 16L 10 41.5"></path></g></g></g><g id="g-root-cp_5_g-5_hrjs1r1e09v5s-stroke" data-item-order="-932904" transform="translate(392, 566)"><g id="cp_5_g-5_hrjs1r1e09v5s-stroke" fill="none" stroke-linecap="round" stroke-linejoin="round" stroke-miterlimit="4" stroke="#ffffff" stroke-width="2"><g><path d="M 52 94C 75.196 94 94 75.196 94 52C 94 28.804 75.196 10 52 10C 28.804 10 10 28.804 10 52C 10 75.196 28.804 94 52 94ZM 52 78.25C 66.4975 78.25 78.25 66.4975 78.25 52C 78.25 37.5025 66.4975 25.75 52 25.75C 37.5025 25.75 25.75 37.5025 25.75 52C 25.75 66.4975 37.5025 78.25 52 78.25Z"></path></g></g></g><g id="g-root-cp_5_Subtract-with-terminator_8_4gpqrj1e09tky-stroke" data-item-order="-932899" transform="translate(476, 605.375)"><g id="cp_5_Subtract-with-terminator_8_4gpqrj1e09tky-stroke" fill="none" stroke-linecap="round" stroke-linejoin="round" stroke-miterlimit="4" stroke="#e0cb15" stroke-width="2"><g><path d="M 49.375 12.625L 10 12.625M 52 10C 53.4488 10 54.625 11.1762 54.625 12.625C 54.625 14.0738 53.4488 15.25 52 15.25C 50.5512 15.25 49.375 14.0738 49.375 12.625C 49.375 11.1762 50.5512 10 52 10Z"></path></g></g></g><g id="g-root-cp_5_Subtract-with-terminator_9_1q6dadb1e09uys-stroke" data-item-order="-932893" transform="translate(347, 605)"><g id="cp_5_Subtract-with-terminator_9_1q6dadb1e09uys-stroke" fill="none" stroke-linecap="round" stroke-linejoin="round" stroke-miterlimit="4" stroke="#e0cb15" stroke-width="2"><g><path d="M 16 13L 55 13M 13 10C 11.3443 10 10 11.3443 10 13C 10 14.6557 11.3443 16 13 16C 14.6557 16 16 14.6557 16 13C 16 11.3443 14.6557 10 13 10Z"></path></g></g></g><g id="g-root-cp_5_lines_4_1hbcr7j1e09slq-stroke" data-item-order="-932878" transform="translate(426, 649.25)"><g id="cp_5_lines_4_1hbcr7j1e09slq-stroke" fill="none" stroke-linecap="round" stroke-linejoin="round" stroke-miterlimit="4" stroke="#ffffff" stroke-width="2"><g><path d="M 10 16L 10 10C 12.5913 10.5167 15.2656 10.7871 18 10.7871C 20.7344 10.7871 23.4087 10.5167 26 10.000001L 26 16M 26 41.5L 26 47.5C 23.4087 46.9833 20.7344 46.7129 18 46.7129C 15.2656 46.7129 12.5913 46.9833 10 47.5L 10 41.5M 26 41.5L 26 16M 10 16L 10 41.5"></path></g></g></g><g id="g-root-cp_6_g-6_18fpqyn1e09u68-stroke" data-item-order="-932850" transform="translate(392, 686)"><g id="cp_6_g-6_18fpqyn1e09u68-stroke" fill="none" stroke-linecap="round" stroke-linejoin="round" stroke-miterlimit="4" stroke="#ffffff" stroke-width="2"><g><path d="M 52 94C 75.196 94 94 75.196 94 52C 94 28.804 75.196 10 52 10C 28.804 10 10 28.804 10 52C 10 75.196 28.804 94 52 94ZM 52 78.25C 66.4975 78.25 78.25 66.4975 78.25 52C 78.25 37.5025 66.4975 25.75 52 25.75C 37.5025 25.75 25.75 37.5025 25.75 52C 25.75 66.4975 37.5025 78.25 52 78.25Z"></path></g></g></g><g id="g-root-cp_6_Subtract-with-terminator_10_v4vpof1e09sle-stroke" data-item-order="-932845" transform="translate(476, 725.375)"><g id="cp_6_Subtract-with-terminator_10_v4vpof1e09sle-stroke" fill="none" stroke-linecap="round" stroke-linejoin="round" stroke-miterlimit="4" stroke="#de8431" stroke-width="2"><g><path d="M 49.375 12.625L 10 12.625M 52 10C 53.4488 10 54.625 11.1762 54.625 12.625C 54.625 14.0738 53.4488 15.25 52 15.25C 50.5512 15.25 49.375 14.0738 49.375 12.625C 49.375 11.1762 50.5512 10 52 10Z"></path></g></g></g><g id="g-root-cp_6_Subtract-with-terminator_11_m98pfj1e09te4-stroke" data-item-order="-932839" transform="translate(347, 725)"><g id="cp_6_Subtract-with-terminator_11_m98pfj1e09te4-stroke" fill="none" stroke-linecap="round" stroke-linejoin="round" stroke-miterlimit="4" stroke="#de8431" stroke-width="2"><g><path d="M 16 13L 55 13M 13 10C 11.3443 10 10 11.3443 10 13C 10 14.6557 11.3443 16 13 16C 14.6557 16 16 14.6557 16 13C 16 11.3443 14.6557 10 13 10Z"></path></g></g></g><g id="g-root-cp_6_lines_5_htf7b31e09u6e-stroke" data-item-order="-932828" transform="translate(426, 769.25)"><g id="cp_6_lines_5_htf7b31e09u6e-stroke" fill="none" stroke-linecap="round" stroke-linejoin="round" stroke-miterlimit="4" stroke="#ffffff" stroke-width="2"><g><path d="M 10 16L 10 10C 12.5913 10.5167 15.2656 10.7871 18 10.7871C 20.7344 10.7871 23.4087 10.5167 26 10.000001L 26 16M 26 41.5L 26 47.5C 23.4087 46.9833 20.7344 46.7129 18 46.7129C 15.2656 46.7129 12.5913 46.9833 10 47.5L 10 41.5M 26 41.5L 26 16M 10 16L 10 41.5"></path></g></g></g><g id="g-root-cp_7_g-7_4il60v1e09slk-stroke" data-item-order="-932804" transform="translate(392, 806)"><g id="cp_7_g-7_4il60v1e09slk-stroke" fill="none" stroke-linecap="round" stroke-linejoin="round" stroke-miterlimit="4" stroke="#ffffff" stroke-width="2"><g><path d="M 52 94C 75.196 94 94 75.196 94 52C 94 28.804 75.196 10 52 10C 28.804 10 10 28.804 10 52C 10 75.196 28.804 94 52 94ZM 52 78.25C 66.4975 78.25 78.25 66.4975 78.25 52C 78.25 37.5025 66.4975 25.75 52 25.75C 37.5025 25.75 25.75 37.5025 25.75 52C 25.75 66.4975 37.5025 78.25 52 78.25Z"></path></g></g></g><g id="g-root-cp_7_Subtract-with-terminator_12_2rnwf1e09tdu-stroke" data-item-order="-932799" transform="translate(476, 845.375)"><g id="cp_7_Subtract-with-terminator_12_2rnwf1e09tdu-stroke" fill="none" stroke-linecap="round" stroke-linejoin="round" stroke-miterlimit="4" stroke="#e55753" stroke-width="2"><g><path d="M 49.375 12.625L 10 12.625M 52 10C 53.4488 10 54.625 11.1762 54.625 12.625C 54.625 14.0738 53.4488 15.25 52 15.25C 50.5512 15.25 49.375 14.0738 49.375 12.625C 49.375 11.1762 50.5512 10 52 10Z"></path></g></g></g><g id="g-root-cp_7_Subtract-with-terminator_13_1q88pmn1e09tzg-stroke" data-item-order="-932793" transform="translate(347, 845)"><g id="cp_7_Subtract-with-terminator_13_1q88pmn1e09tzg-stroke" fill="none" stroke-linecap="round" stroke-linejoin="round" stroke-miterlimit="4" stroke="#e55753" stroke-width="2"><g><path d="M 16 13L 55 13M 13 10C 11.3443 10 10 11.3443 10 13C 10 14.6557 11.3443 16 13 16C 14.6557 16 16 14.6557 16 13C 16 11.3443 14.6557 10 13 10Z"></path></g></g></g><g id="g-root-cp_7_lines_6_1cxeocf1e09sem-stroke" data-item-order="-932778" transform="translate(426, 889.25)"><g id="cp_7_lines_6_1cxeocf1e09sem-stroke" fill="none" stroke-linecap="round" stroke-linejoin="round" stroke-miterlimit="4" stroke="#ffffff" stroke-width="2"><g><path d="M 10 16L 10 10C 12.5913 10.5167 15.2656 10.7871 18 10.7871C 20.7344 10.7871 23.4087 10.5167 26 10.000001L 26 16M 26 41.5L 26 47.5C 23.4087 46.9833 20.7344 46.7129 18 46.7129C 15.2656 46.7129 12.5913 46.9833 10 47.5L 10 41.5M 26 41.5L 26 16M 10 16L 10 41.5"></path></g></g></g><g id="g-root-cp_8_g-8_v64nun1e09urs-stroke" data-item-order="-932750" transform="translate(392, 926)"><g id="cp_8_g-8_v64nun1e09urs-stroke" fill="none" stroke-linecap="round" stroke-linejoin="round" stroke-miterlimit="4" stroke="#ffffff" stroke-width="2"><g><path d="M 52 94C 75.196 94 94 75.196 94 52C 94 28.804 75.196 10 52 10C 28.804 10 10 28.804 10 52C 10 75.196 28.804 94 52 94ZM 52 78.25C 66.4975 78.25 78.25 66.4975 78.25 52C 78.25 37.5025 66.4975 25.75 52 25.75C 37.5025 25.75 25.75 37.5025 25.75 52C 25.75 66.4975 37.5025 78.25 52 78.25Z"></path></g></g></g><g id="g-root-cp_8_Subtract-with-terminator_14_hvamkf1e09t6y-stroke" data-item-order="-932745" transform="translate(476, 965.375)"><g id="cp_8_Subtract-with-terminator_14_hvamkf1e09t6y-stroke" fill="none" stroke-linecap="round" stroke-linejoin="round" stroke-miterlimit="4" stroke="#ba5de5" stroke-width="2"><g><path d="M 49.375 12.625L 10 12.625M 52 10C 53.4488 10 54.625 11.1762 54.625 12.625C 54.625 14.0738 53.4488 15.25 52 15.25C 50.5512 15.25 49.375 14.0738 49.375 12.625C 49.375 11.1762 50.5512 10 52 10Z"></path></g></g></g><g id="g-root-cp_8_Subtract-with-terminator_15_dfh4fz1e09tz8-stroke" data-item-order="-932739" transform="translate(347, 965)"><g id="cp_8_Subtract-with-terminator_15_dfh4fz1e09tz8-stroke" fill="none" stroke-linecap="round" stroke-linejoin="round" stroke-miterlimit="4" stroke="#ba5de5" stroke-width="2"><g><path d="M 16 13L 55 13M 13 10C 11.3443 10 10 11.3443 10 13C 10 14.6557 11.3443 16 13 16C 14.6557 16 16 14.6557 16 13C 16 11.3443 14.6557 10 13 10Z"></path></g></g></g><g id="g-root-ic_dist_59k8v1e0cohy-stroke" data-item-order="0" transform="translate(290, 194)"><g id="ic_dist_59k8v1e0cohy-stroke" fill="none" stroke-linecap="round" stroke-linejoin="round" stroke-miterlimit="4" stroke="#3cc583" stroke-width="2"><g><path d="M 32.130798 42C 32.130798 43.104599 31.235399 44 30.1308 44L 14.1272 44C 13.02264 44 12.1272 43.104599 12.1272 42L 12.1272 25.99634C 12.1272 24.891781 13.02264 23.99634 14.1272 23.99634L 30.1308 23.99634C 31.235399 23.99634 32.130798 24.891781 32.130798 25.99634L 32.130798 42ZM 10 10M 55.873001 11.898438L 55.873001 56.101601M 10 10M 48.974602 34L 32.120399 34M 10 10M 42.888401 27.914061L 48.974602 34.000603L 42.888401 40.0868"></path></g></g></g><g id="g-root-tx_initiate_18iu4e71e0cm4s-stroke" data-item-order="0" transform="translate(74, 194)"></g><g id="g-root-tx_startint_1urrqv31e9tzpd-stroke" data-item-order="0" transform="translate(530, 476)"></g><g id="g-root-tx_userclic_13z8gcf1e9ty4n-stroke" data-item-order="0" transform="translate(74, 494)"></g><g id="g-root-tx_userlogs_hyezzz1e09udd-stroke" data-item-order="0" transform="translate(590, 110)"></g><g id="g-root-tx_1_qqb5q71e0cmbv-stroke" data-item-order="0" transform="translate(422, 86)"></g><g id="g-root-tx_5_m7yfun1e9wr9j-stroke" data-item-order="0" transform="translate(422, 590)"></g><g id="g-root-ic_webc_vbpm7z1e9tzie-stroke" data-item-order="0" transform="translate(530, 578)"><g id="ic_webc_vbpm7z1e9tzie-stroke" fill="none" stroke-linecap="round" stroke-linejoin="round" stroke-miterlimit="4" stroke="#e0cb15" stroke-width="2"><g><path d="M 13.428572 32.354286C 13.428573 43.715572 22.638714 52.925716 34 52.925716C 45.361286 52.925716 54.57143 43.715572 54.57143 32.354286C 54.57143 20.993 45.361286 11.782858 34 11.782858C 22.638714 11.782858 13.428573 20.993 13.428573 32.354286M 44.525715 50.045715C 47.759556 51.487049 50.655933 53.589256 53.028568 56.21714M 14.971429 56.21714C 17.344067 53.589256 20.240444 51.487049 23.474285 50.045712M 23.714287 32.354286C 23.714287 38.034927 28.319357 42.640003 34 42.640003C 39.680645 42.640003 44.285713 38.034927 44.285713 32.354286C 44.285713 26.673643 39.680645 22.068573 34 22.068573C 28.319357 22.068573 23.714287 26.673643 23.714287 32.354286M 32.285713 32.354286C 32.285713 33.30106 33.053226 34.068573 34 34.068573C 34.946774 34.068573 35.714287 33.30106 35.714287 32.354286C 35.714287 31.407513 34.946774 30.639999 34 30.639999C 33.053226 30.639999 32.285713 31.407513 32.285713 32.354286"></path></g></g></g><g id="g-root-tx_activate_1qdtnzz1e9tyq4-stroke" data-item-order="0" transform="translate(590, 578)"></g><g id="g-root-tx_enablewe_4njnb31e9u0i3-stroke" data-item-order="0" transform="translate(218, 596)"></g><g id="g-root-tx_homedash_mcd2v31e09ukv-stroke" data-item-order="0" transform="translate(194, 92)"></g><g id="g-root-tx_navigate_1d0j1rz1e09tl4-stroke" data-item-order="0" transform="translate(590, 74)"></g><g id="g-root-tx_userenab_18n64lb1e9txxh-stroke" data-item-order="0" transform="translate(590, 614)"></g><g id="g-root-ic_moni_4nkypr1e09ssi-stroke" data-item-order="0" transform="translate(530, 74)"><g id="ic_moni_4nkypr1e09ssi-stroke" fill="none" stroke-linecap="round" stroke-linejoin="round" stroke-miterlimit="4" stroke="#4e88e7" stroke-width="2"><g><path d="M 10 10M 39 57L 51 57M 10 10M 45 57L 45 51M 35 33L 55 33C 55 33 57 33 57 35L 57 49C 57 49 57 51 55 51L 35 51C 35 51 33 51 33 49L 33 35C 33 35 33 33 35 33M 31.364 29.384001C 33.736435 29.648733 36.13031 29.129639 38.18 27.906C 38.421547 27.762133 38.588612 27.520359 38.637756 27.243542C 38.686897 26.966724 38.613266 26.682219 38.435997 26.463999C 37.620003 25.501999 37.052002 24.226 36.802002 20.529999C 36.323997 13.48 31.57 11 27.483999 11C 23.397999 11 18.644001 13.48 18.167999 20.529999C 17.917999 24.223999 17.35 25.501999 16.534 26.464001C 16.356733 26.682219 16.2831 26.966724 16.332243 27.243542C 16.381386 27.520359 16.548452 27.762133 16.789999 27.905998C 18.838049 29.128208 21.229557 29.647245 23.599998 29.383999M 31.364 29.384001L 31.364 28.09C 31.361683 27.71007 31.520044 27.346859 31.799999 27.089998C 32.84108 26.242001 33.40255 24.939117 33.304001 23.6L 33.304001 19.728001C 31.023767 19.335838 28.959236 18.140396 27.483999 16.358C 26.009846 18.140671 23.945816 19.336233 21.666 19.728001L 21.666 23.6C 21.569456 24.937063 22.130733 26.237253 23.17 27.084C 23.449955 27.340858 23.608315 27.704071 23.605999 28.084L 23.605999 30.702C 23.601013 31.296726 23.229431 31.826649 22.672001 32.034C 17.354 34.003998 13.446 35.405998 12.434 37.433998C 11.570074 39.167908 11.081447 41.064491 11 43L 29 43"></path></g></g></g><g id="g-root-tx_recordre_4gofcv1e9wtmo-stroke" data-item-order="0" transform="translate(110, 698)"></g><g id="g-root-ic_reco_qp0w5b1e9wsne-stroke" data-item-order="0" transform="translate(290, 698)"><g id="ic_reco_qp0w5b1e9wsne-stroke" fill="none" stroke-linecap="round" stroke-linejoin="round" stroke-miterlimit="4" stroke="#de8431" stroke-width="2"><g><path d="M 34.571999 54.858002C 34.570896 56.041317 33.61132 57 32.428001 57L 13.142 57C 11.959463 56.998898 11.001102 56.040539 11 54.858002L 11 49.5C 11 42.990772 16.276772 37.714001 22.785999 37.714001C 29.295229 37.714001 34.571999 42.990772 34.571999 49.5ZM 18.285999 45C 18.285999 45.276142 18.509857 45.5 18.785999 45.5C 19.062141 45.5 19.285999 45.276142 19.285999 45C 19.285999 44.723858 19.062141 44.5 18.785999 44.5C 18.509857 44.5 18.285999 44.723858 18.285999 45M 26.285999 44.987999C 26.285999 45.264141 26.509857 45.487999 26.785999 45.487999C 27.062143 45.487999 27.285999 45.264141 27.285999 44.987999C 27.285999 44.711857 27.062143 44.487999 26.785999 44.487999C 26.509857 44.487999 26.285999 44.711857 26.285999 44.987999M 22.785999 37.714001L 22.785999 33.428001M 19.571999 30.214001C 19.572001 31.989044 21.010956 33.428001 22.785999 33.428001C 24.561043 33.428001 26 31.989044 26 30.214001C 26 28.438957 24.561043 27 22.785999 27C 21.010956 27 19.572001 28.438957 19.572001 30.214001M 11 51.630001L 34.571999 51.630001M 27 21L 27 23.5M 32 19L 32 31M 37 17L 37 33M 57 21L 57 29M 52 19L 52 31M 47 17L 47 33M 42 11L 42 39"></path></g></g></g><g id="g-root-tx_userisre_94m3lr1e9zk77-stroke" data-item-order="0" transform="translate(50, 998)"></g><g id="g-root-tx_6_vb354v1e9wtfw-stroke" data-item-order="0" transform="translate(422, 710)"></g><g id="g-root-tx_4_qun5xb1e9ty4i-stroke" data-item-order="0" transform="translate(422, 470)"></g><g id="g-root-tx_2_hzny671e0e0ow-stroke" data-item-order="0" transform="translate(422, 206)"></g><g id="g-root-tx_recordan_18mjni71e9wruz-stroke" data-item-order="0" transform="translate(530, 716)"></g><g id="g-root-tx_userpres_1q6yg1r1e9wrup-stroke" data-item-order="0" transform="translate(50, 734)"></g><g id="g-root-ic_3_dcxwov1e9ty4o-stroke" data-item-order="0" transform="translate(290, 458)"><g id="ic_3_dcxwov1e9ty4o-stroke" fill="none" stroke-linecap="round" stroke-linejoin="round" stroke-miterlimit="4" stroke="#92bd39" stroke-width="2"><g><path d="M 30.5 35.771999L 35.584 35.771999L 35.584 43.5L 44.416 35.771999L 53.91 35.771999C 55.616558 35.771996 56.999996 34.388557 56.999996 32.681999L 57 14.082C 56.995586 12.378565 55.613438 10.999994 53.909996 11L 26.09 11C 24.383438 11 23 12.38344 23 14.09L 23 29M 36.174 30L 36.174 17.216L 46.826 23.608L 36.174 30ZM 14 39C 14 42.313709 16.686291 45 20 45C 23.313709 45 26 42.313709 26 39C 26 35.686295 23.313709 33 20 33C 16.686291 33 14 35.686295 14 39M 29 57C 29 52.029438 24.970562 48 20 48C 15.029438 48 11 52.029438 11 57"></path></g></g></g><g id="g-root-tx_7_hydolb1e9zke9-stroke" data-item-order="0" transform="translate(422, 830)"></g><g id="g-root-ic_flag_1hjflxb1e9wt8g-stroke" data-item-order="0" transform="translate(530, 818)"><g id="ic_flag_1hjflxb1e9wt8g-stroke" fill="none" stroke-linecap="round" stroke-linejoin="round" stroke-miterlimit="4" stroke="#e55753" stroke-width="2"><g><path d="M 38.059998 37.246002L 38.059998 57.007999M 38.059998 48.245998L 40.639999 47.386002C 42.798012 46.666199 45.167515 46.983608 47.060001 48.245998C 48.952919 49.507229 51.321869 49.824566 53.48 49.105999L 56.060001 48.245998L 56.060001 34.246002L 53.48 35.106003C 51.321869 35.82457 48.952919 35.507233 47.059998 34.245998C 45.167515 32.983608 42.798012 32.666199 40.639999 33.386002L 38.059998 34.246002ZM 12.059999 19.007999L 52.060001 19.007999M 18.060001 14.507999L 18.060001 14.507999M 18.060001 14.507999C 17.783857 14.507999 17.559999 14.731857 17.559999 15.007999C 17.559999 15.284142 17.783857 15.507999 18.060001 15.507999C 18.336143 15.507999 18.560001 15.284142 18.560001 15.007999C 18.560001 14.731857 18.336143 14.507999 18.060001 14.507999M 22.060001 14.507999L 22.060001 14.507999M 22.060001 14.507999C 21.783857 14.507999 21.560001 14.731857 21.560001 15.007999C 21.560001 15.284142 21.783857 15.507999 22.060001 15.507999C 22.336143 15.507999 22.560001 15.284142 22.560001 15.007999C 22.560001 14.731857 22.336143 14.507999 22.060001 14.507999M 26.059999 14.507999L 26.059999 14.507999M 26.059999 14.507999C 25.783857 14.507999 25.560001 14.731857 25.560001 15.007999C 25.560001 15.284142 25.783857 15.507999 26.059999 15.507999C 26.336142 15.507999 26.559999 15.284142 26.559999 15.007999C 26.559999 14.731857 26.336142 14.507999 26.059999 14.507999M 32.059998 43L 16.059999 43C 13.850861 43 12.059999 41.209137 12.059999 39L 12.059999 15C 12.059999 12.790861 13.850861 11 16.059999 11L 48.060001 11C 50.269138 11 52.060001 12.790861 52.060001 15L 52.060001 31"></path></g></g></g><g id="g-root-tx_finalize_dkflq71e9wsna-stroke" data-item-order="0" transform="translate(590, 818)"></g><g id="g-root-tx_endinter_qvw43j1e9wr2d-stroke" data-item-order="0" transform="translate(242, 836)"></g><g id="g-root-tx_userfill_mgqegv1e0e22r-stroke" data-item-order="0" transform="translate(590, 374)"></g><g id="g-root-tx_addnew_zqbhkv1e0e1hj-stroke" data-item-order="0" transform="translate(530, 212)"></g><g id="g-root-tx_usercomp_9lkfz1e9wr2f-stroke" data-item-order="0" transform="translate(590, 854)"></g><g id="g-root-tx_userclic_hwjkqn1e0cm4t-stroke" data-item-order="0" transform="translate(50, 230)"></g><g id="g-root-tx_reviewan_zqwn9b1e9zk76-stroke" data-item-order="0" transform="translate(98, 938)"></g><g id="g-root-ic_chec_1lymmyn1e9zmdo-stroke" data-item-order="0" transform="translate(290, 938)"><g id="ic_chec_1lymmyn1e9zmdo-stroke" fill="none" stroke-linecap="round" stroke-linejoin="round" stroke-miterlimit="4" stroke="#ba5de5" stroke-width="2"><g><path d="M 36.5 23.5C 36.5 29.022848 40.977154 33.5 46.5 33.5C 52.022846 33.5 56.5 29.022848 56.5 23.5C 56.5 17.977154 52.022846 13.5 46.5 13.5C 40.977154 13.5 36.5 17.977154 36.5 23.5ZM 42.5 24.5L 44.666 26.666C 44.873859 26.873537 45.162449 26.979197 45.455173 26.954931C 45.747898 26.930666 46.015152 26.778931 46.186001 26.540001L 50.5 20.5M 43.568001 37.624001L 41.798 39.164001L 46.798 54.183998C 46.935238 54.596989 46.789619 55.051315 46.437881 55.307583C 46.086143 55.56385 45.609051 55.56321 45.257999 55.306L 32.799999 46.164001L 20.332001 55.306C 19.980949 55.56321 19.503857 55.56385 19.152119 55.307583C 18.800381 55.051315 18.654764 54.596989 18.792 54.183998L 23.792 39.164001L 11.85 28.26C 11.531788 27.987877 11.416797 27.546324 11.561853 27.153553C 11.70691 26.760784 12.081301 26.499968 12.5 26.5L 26.799999 26.5L 31.868 13.148C 32.015343 12.759539 32.387535 12.502647 32.803001 12.502647C 33.218468 12.502647 33.590656 12.759539 33.737999 13.148L 34.686001 15.652"></path></g></g></g><g id="g-root-tx_3_1hiug8v1e0feod-stroke" data-item-order="0" transform="translate(422, 326)"></g><g id="g-root-tx_8_mdkpmn1ea105q-stroke" data-item-order="0" transform="translate(422, 950)"></g><g id="g-root-tx_fillform_940xxb1e0e1hl-stroke" data-item-order="0" transform="translate(266, 332)"></g><g id="g-root-tx_complete_1qehghr1e0e0hu-stroke" data-item-order="0" transform="translate(590, 314)"></g><g id="g-root-tx_feedback_zp17zz1ea0ykt-stroke" data-item-order="0" transform="translate(530, 956)"></g><g id="g-root-ic_prof_1ulkben1e0fgg4-stroke" data-item-order="0" transform="translate(530, 314)"><g id="ic_prof_1ulkben1e0fgg4-stroke" fill="none" stroke-linecap="round" stroke-linejoin="round" stroke-miterlimit="4" stroke="#1eabda" stroke-width="2"><g><path d="M 16.780001 19.5C 16.780001 24.19442 20.585579 28 25.279999 28C 29.974421 28 33.779999 24.19442 33.779999 19.5C 33.779999 14.80558 29.974421 11 25.279999 11C 20.585579 11 16.780001 14.80558 16.780001 19.5M 32.720001 47L 11.28 47.012001L 11.28 45C 11.278284 39.620232 14.359401 34.71534 19.206581 32.381516C 24.053761 30.047686 29.809507 30.697794 34.014 34.054001M 22.862 23.986C 23.466 23.271683 24.354816 22.860821 25.29026 22.863522C 26.225706 22.866222 27.112135 23.282207 27.712 24M 25.285999 39.003998L 25.285999 47.012001M 18.841999 32.562L 25.285999 39.003998M 31.732 32.562L 25.285999 39.003998M 38.720001 35L 54.720001 35C 54.720001 35 56.720001 35 56.720001 37L 56.720001 55C 56.720001 55 56.720001 57 54.720001 57L 38.720001 57C 38.720001 57 36.720001 57 36.720001 55L 36.720001 37C 36.720001 37 36.720001 35 38.720001 35M 41.720001 41L 51.720001 41M 41.720001 46L 51.720001 46M 41.720001 51L 45.720001 51"></path></g></g></g><g id="g-root-tx_beginint_8g5b1e9txji-stroke" data-item-order="0" transform="translate(50, 458)"></g></g></g><path id="wmfh3io1j083rj" d="M65.283 12.757a.35.35 0 0 0 .584.157l5.203-5.141-6.183 3.523.396 1.461zm-2.216-11.7a.35.35 0 0 0-.522.305v3.111l3.276-1.868-2.754-1.548zm3.728 2.105l-4.25 2.421v2.445l6.391-3.644-2.141-1.222zm4.708 3.303a.35.35 0 0 0 0-.609l-1.592-.9-7.365 4.199v1.782a.35.35 0 0 0 .523.305l8.435-4.777z M44.542 2.513c0-.433.355-.783.792-.783s.792.35.792.783-.355.783-.792.783-.792-.35-.792-.783zm59.171 0c0-.433.355-.783.792-.783s.792.35.792.783-.355.783-.792.783-.792-.35-.792-.783zm-85.951 7.636h-1.27v-.487c-.276.201-.864.609-1.881.609-1.202 0-2.274-.794-2.137-2.078.118-1.106 1.153-1.584 1.848-1.727l2.17-.345c0-.539-.29-.956-1.064-1.006s-1.21.305-1.571 1.017l-1.124-.605c1.218-2.631 5.029-1.764 5.029.414v4.207zm-1.27-2.86c.006.396-.062 1.112-.819 1.59-.587.37-1.841.299-1.903-.395-.049-.555.461-.791.906-.898l1.816-.297zm72.662 2.86h-1.27v-.487c-.276.201-.864.609-1.881.609-1.202 0-2.274-.794-2.137-2.078.118-1.106 1.153-1.584 1.848-1.727l2.17-.345c0-.539-.29-.956-1.064-1.006s-1.21.305-1.571 1.017l-1.124-.605c1.218-2.631 5.029-1.764 5.029.414v4.207zm-1.27-2.86c.006.396-.062 1.112-.82 1.59-.587.37-1.841.299-1.903-.395-.049-.555.461-.791.906-.898l1.816-.297zM99.096 10.149H97.85v-8.45h1.246v4.895l2.68-2.559h1.738l-2.633 2.535 2.715 3.578h-1.556l-2.077-2.707-.867.844v1.863zm6.053-6.114h-1.255v6.113h1.255V4.035zm-59.2 0h-1.255v6.113h1.255V4.035zm5.584 6.113V1.697h1.255v2.695c.361-.346 1-.485 1.47-.485 1.452 0 2.477 1.082 2.457 2.448v3.792h-1.27v-3.68c0-.408-.214-1.339-1.315-1.339-.968 0-1.342.756-1.342 1.339v3.681h-1.255zm-4.76-4.894V4.039h.621a.45.45 0 0 0 .45-.45v-.855h1.251v1.305h1.309v1.215h-1.309v3.109c0 .293.105.664.648.664.365 0 .531-.035.736-.07v1.137s-.361.113-.857.113c-1.398 0-1.777-1.051-1.777-1.788V5.254h-1.071zM36.528 4.039h-1.394l2.191 6.106h1.125l1.234-3.918 1.238 3.918h1.129l2.188-6.106h-1.383l-1.359 3.93-1.256-3.93h-1.124l-1.242 3.957-1.348-3.957zM26.212 7.141c-.02 1.566 1.187 3.129 3.223 3.129 1.566 0 2.383-.918 2.734-1.719L31.172 8c-.315.399-.801 1.094-1.738 1.094-1.145 0-1.825-.781-1.891-1.52h4.625c.074-.284.148-.995-.03-1.559-.336-1.064-1.221-2.102-2.839-2.102s-3.088 1.152-3.088 3.227zm1.363-.75h3.348c-.055-.43-.566-1.301-1.623-1.301a1.79 1.79 0 0 0-1.725 1.301zm-8.758.75c.038 1.758 1.277 3.133 3.145 3.133 1.074 0 1.723-.477 1.961-.672v.547h1.242V1.703h-1.258v2.888c-.414-.36-1.062-.68-1.93-.68-1.91 0-3.198 1.473-3.16 3.23zm1.309-.08c0 1.119.723 1.978 1.836 1.978a1.88 1.88 0 0 0 1.94-1.904c0-1.371-1.011-1.99-1.972-1.99s-1.805.798-1.805 1.916zm76.683-.028C96.771 5.275 95.532 3.9 93.664 3.9c-1.074 0-1.723.477-1.961.672v-.547h-1.242v8.22h1.258V9.583c.414.36 1.063.68 1.93.68 1.91 0 3.198-1.473 3.16-3.23zm-1.309.08c0-1.119-.723-1.978-1.836-1.978a1.88 1.88 0 0 0-1.94 1.904c0 1.371 1.011 1.99 1.972 1.99S95.5 8.231 95.5 7.113zM106.441 10.173V4.036h1.254v.382c.361-.346 1-.485 1.47-.485 1.452 0 2.477 1.082 2.457 2.448v3.792h-1.27V6.492c0-.408-.214-1.339-1.315-1.339-.969 0-1.342.756-1.342 1.339v3.681h-1.254zm-30.383-.021V1.824h1.084l4.215 5.777V1.824h1.32v8.328h-1.094l-4.207-5.796v5.796h-1.319zM5.24 10.149H4V2.377h1.014l2.664 3.597 2.654-3.592h1.03v7.766h-1.256V4.762L7.678 8.068 5.24 4.742v5.407z" transform="translate(776, 1070)" fill="#80808088" stroke="none"></path></svg>