<?xml version="1.0" encoding="utf-8" standalone="yes"?>
<!DOCTYPE svg PUBLIC "-//W3C//DTD SVG 1.1//EN" "http://www.w3.org/Graphics/SVG/1.1/DTD/svg11.dtd">
<svg width="721" height="542" viewBox="0 0 721 542" style="fill:none;stroke:none;fill-rule:evenodd;clip-rule:evenodd;stroke-linecap:round;stroke-linejoin:round;stroke-miterlimit:1.5;" version="1.1" xmlns="http://www.w3.org/2000/svg" xmlns:xlink="http://www.w3.org/1999/xlink"><style class="text-font-style fontImports" data-font-family="Roboto">@import url('https://fonts.googleapis.com/css2?family=Roboto:wght@400;700&amp;display=block');</style><g id="items" style="isolation: isolate"><g id="blend" style="mix-blend-mode: normal"><g id="g-root-sy_4_cu_zrjnbz1f4cg7f-fill" data-item-order="-115838" transform="translate(86, 354.44921875)"><g id="sy_4_cu_zrjnbz1f4cg7f-fill" stroke="none" fill="#e0cb15"><g><path d="M 38.3896 16.3626C 52.9728 11.2737 70.1232 10 82 10C 93.8806 10 111.03 11.2735 125.612 16.3619C 130.261 17.984 134.648 19.9937 138.521 22.4734C 147.71 28.3574 154 36.8877 154 49.1641C 154 82.9093 106.6676 88.2344 82 88.2344C 57.4378 88.2344 10 82.7685 10 49.1641C 10 36.8495 16.331 28.3043 25.5679 22.4185C 29.4194 19.9644 33.776 17.9726 38.3896 16.3626ZM 82 82C 57.1472 82 37 75.9558 37 68.5C 37 67.2533 37.5633 66.0461 38.6177 64.9C 43.8692 59.1919 61.3028 55 82 55C 102.6972 55 120.131 59.1919 125.382 64.9C 126.437 66.0461 127 67.2533 127 68.5C 127 75.9558 106.8528 82 82 82ZM 125.3823 64.9C 126.4367 66.0461 127 67.2533 127 68.5C 127 75.9558 106.8528 82 82 82C 57.1472 82 37 75.9558 37 68.5C 37 67.2533 37.5633 66.0461 38.6177 64.9C 43.8692 59.1919 61.3028 55 82 55C 102.6972 55 120.1308 59.1919 125.3823 64.9Z"></path></g></g></g><g id="g-root-sy_3_cu_mgpm1r1f4cemk-fill" data-item-order="-115834" transform="translate(62, 270.44921875)"><g id="sy_3_cu_mgpm1r1f4cemk-fill" stroke="none" fill="#92bd39"><g><path d="M 166 88C 166 86.3377 165.249 84.7281 163.843 83.2C 156.841 75.5892 133.5963 70 106 70C 78.4038 70 55.1589 75.5892 48.1569 83.2C 46.7511 84.7281 46 86.3377 46 88C 46 92.7873 52.2296 97.1381 62.3896 100.3626C 76.9728 95.2737 94.1232 94 106 94C 117.8806 94 135.0305 95.2735 149.612 100.3619C 159.771 97.1375 166 92.787 166 88ZM 163.843 83.2C 165.249 84.7281 166 86.3377 166 88C 166 92.787 159.771 97.1375 149.612 100.3619C 154.261 101.984 158.648 103.9937 162.521 106.4734C 184.167 99.3457 202 86.1359 202 62.2188C 202 43.1964 190.673 30.9199 175.116 23.0874C 169.382 20.2005 163.074 17.9173 156.546 16.1227C 138.975 11.2916 119.815 10 106 10C 92.1888 10 73.0291 11.2918 55.4565 16.1234C 48.9764 17.9051 42.7122 20.1682 37.0116 23.0253C 21.3896 30.855 10 43.1462 10 62.2188C 10 86.0481 27.8903 99.2655 49.5679 106.4185C 53.4194 103.9644 57.776 101.9726 62.3896 100.3626C 52.2296 97.1381 46 92.7873 46 88C 46 86.3377 46.7511 84.7281 48.1569 83.2C 55.1589 75.5892 78.4037 70 106 70C 133.596 70 156.841 75.5892 163.843 83.2Z"></path></g></g></g><g id="g-root-sy_2_cu_9593of1f4cg7h-fill" data-item-order="-115830" transform="translate(38, 162.44921875)"><g id="sy_2_cu_9593of1f4cg7h-fill" stroke="none" fill="#3cc583"><g><path d="M 205 107.5C 205 105.4222 204.061 103.4102 202.304 101.5C 193.551 91.9864 164.495 85 130 85C 95.5047 85 66.4486 91.9864 57.6962 101.5C 55.9388 103.4102 55 105.4222 55 107.5C 55 114.0847 64.4286 120.0088 79.4565 124.1234C 97.0291 119.2918 116.1888 118 130 118C 143.8155 118 162.975 119.2916 180.546 124.1227C 195.573 120.008 205 114.0843 205 107.5ZM 202.304 101.5C 204.061 103.4102 205 105.4222 205 107.5C 205 114.084 195.573 120.008 180.546 124.123C 187.074 125.917 193.382 128.2 199.116 131.087C 226.861 122.3 250 105.7333 250 75.2734C 250 49.3826 233.213 33.4891 211.092 23.8787C 203.417 20.5441 195.099 17.966 186.618 15.9891C 166.548 11.311 145.562 10 130 10C 114.443 10 93.4567 11.3112 73.3854 15.99C 64.9643 17.953 56.7043 20.5088 49.0738 23.8093C 26.8718 33.4126 10 49.3203 10 75.2734C 10 105.6269 33.2219 122.206 61.0116 131.025C 66.7122 128.168 72.9764 125.905 79.4565 124.123C 64.4286 120.009 55 114.085 55 107.5C 55 105.4222 55.9388 103.4102 57.6962 101.5C 66.4486 91.9864 95.5047 85 130 85C 164.495 85 193.551 91.9864 202.304 101.5Z"></path></g></g></g><g id="g-root-sy_1_cu_1uljizj1f4dszy-fill" data-item-order="-115826" transform="translate(14, 30.44921875)"><g id="sy_1_cu_1uljizj1f4dszy-fill" stroke="none" fill="#1eabda"><g><path d="M 244 127C 244 124.5066 242.873 122.0922 240.765 119.8C 230.262 108.3837 195.394 100 154 100C 112.6056 100 77.7383 108.3837 67.2354 119.8C 65.1266 122.0922 64 124.5066 64 127C 64 135.4761 77.0191 143.0399 97.3854 147.99C 117.4567 143.3112 138.4428 142 154 142C 169.562 142 190.548 143.311 210.618 147.9891C 230.982 143.039 244 135.4756 244 127ZM 240.765 119.8C 242.873 122.092 244 124.507 244 127C 244 135.476 230.982 143.039 210.618 147.989C 219.099 149.966 227.417 152.544 235.092 155.879C 269.2 145.487 298 125.554 298 88.3281C 298 61.4308 282.902 43.525 261.624 31.7186C 254.259 27.632 246.153 24.2762 237.677 21.5312C 209.315 12.346 176.804 10 154 10C 131.203 10 98.6905 12.3464 70.3262 21.5326C 61.9157 24.2565 53.87 27.5817 46.5503 31.6254C 25.1809 43.4308 10 61.3601 10 88.3281C 10 125.427 38.9089 145.379 73.0738 155.809C 80.7042 152.509 88.9643 149.953 97.3854 147.99C 77.0191 143.04 64 135.476 64 127C 64 124.507 65.1266 122.092 67.2354 119.8C 77.7383 108.3837 112.606 100 154 100C 195.394 100 230.262 108.3837 240.765 119.8Z"></path></g></g></g><g id="g-root-ic_1_zrjnbz1f4dudd-fill" data-item-order="0" transform="translate(326, 30.44921875)"></g><g id="g-root-tx_fillinde_18f2hgf1f4dszk-fill" data-item-order="0" transform="translate(397.9951171875, 42.44921875)"><g id="tx_fillinde_18f2hgf1f4dszk-fill" stroke="none" fill="#32444a"><g><text style="font: bold 20px Roboto, sans-serif; white-space: pre;" font-weight="bold" font-size="20px" font-family="Roboto, sans-serif"><tspan x="12" y="34" dominant-baseline="ideographic">Navigate to Contact </tspan></text></g></g></g><g id="g-root-tx_userprov_1q5q0v31f4dts7-fill" data-item-order="0" transform="translate(398.396484375, 77.96484375)"><g id="tx_userprov_1q5q0v31f4dts7-fill" stroke="none" fill="#32444a"><g><text style="font: 15px Roboto, sans-serif; white-space: pre;" font-size="15px" font-family="Roboto, sans-serif"><tspan x="12" y="27.71" dominant-baseline="ideographic">In the home page user navigates to the </tspan><tspan x="12" y="45.71" dominant-baseline="ideographic">contact section</tspan></text></g></g></g><g id="g-root-ic_writ_18gbisf1f3srgi-fill" data-item-order="0" transform="translate(326, 150.44921875)"></g><g id="g-root-tx_typemess_4hbffj1f4duki-fill" data-item-order="0" transform="translate(397.9951171875, 162.44921875)"><g id="tx_typemess_4hbffj1f4duki-fill" stroke="none" fill="#374840"><g><text style="font: bold 20px Roboto, sans-serif; white-space: pre;" font-weight="bold" font-size="20px" font-family="Roboto, sans-serif"><tspan x="12" y="34" dominant-baseline="ideographic">Fill in details</tspan></text></g></g></g><g id="g-root-tx_userspec_m8lfxb1f4ds7d-fill" data-item-order="0" transform="translate(398.396484375, 197.962890625)"><g id="tx_userspec_m8lfxb1f4ds7d-fill" stroke="none" fill="#374840"><g><text style="font: 15px Roboto, sans-serif; white-space: pre;" font-size="15px" font-family="Roboto, sans-serif"><tspan x="12" y="27.71" dominant-baseline="ideographic">User specifies the desired job description </tspan><tspan x="12" y="45.71" dominant-baseline="ideographic">and role.</tspan></text></g></g></g><g id="g-root-ic_emai_vah71b1f4dszk-fill" data-item-order="0" transform="translate(326, 270.44921875)"></g><g id="g-root-tx_submitre_zlawgv1f4dssk-fill" data-item-order="0" transform="translate(397.9951171875, 282.44921875)"><g id="tx_submitre_zlawgv1f4dssk-fill" stroke="none" fill="#424736"><g><text style="font: bold 20px Roboto, sans-serif; white-space: pre;" font-weight="bold" font-size="20px" font-family="Roboto, sans-serif"><tspan x="12" y="34" dominant-baseline="ideographic">Submit Request</tspan></text></g></g></g><g id="g-root-tx_usersend_1hbyfvj1f4dtl7-fill" data-item-order="0" transform="translate(398.396484375, 317.962890625)"><g id="tx_usersend_1hbyfvj1f4dtl7-fill" stroke="none" fill="#424736"><g><text style="font: 15px Roboto, sans-serif; white-space: pre;" font-size="15px" font-family="Roboto, sans-serif"><tspan x="12" y="30.71" dominant-baseline="ideographic">User sends the request to the platform.</tspan></text></g></g></g><g id="g-root-ic_chec_1hdtv4v1f4dslj-fill" data-item-order="0" transform="translate(326, 390.44921875)"></g><g id="g-root-tx_receiveu_1uonwf31f4du6e-fill" data-item-order="0" transform="translate(397.9951171875, 402.44921875)"><g id="tx_receiveu_1uonwf31f4du6e-fill" stroke="none" fill="#46432d"><g><text style="font: bold 20px Roboto, sans-serif; white-space: pre;" font-weight="bold" font-size="20px" font-family="Roboto, sans-serif"><tspan x="12" y="34" dominant-baseline="ideographic">Receive Updated Options</tspan></text></g></g></g><g id="g-root-tx_userrece_de7dun1f4dv65-fill" data-item-order="0" transform="translate(398.396484375, 437.962890625)"><g id="tx_userrece_de7dun1f4dv65-fill" stroke="none" fill="#46432d"><g><text style="font: 15px Roboto, sans-serif; white-space: pre;" font-size="15px" font-family="Roboto, sans-serif"><tspan x="12" y="27.71" dominant-baseline="ideographic">User receives feedback with updated job </tspan><tspan x="12" y="45.71" dominant-baseline="ideographic">description options.</tspan></text></g></g></g><g id="g-root-sy_4_cu_zrjnbz1f4cg7f-stroke" data-item-order="-115838" transform="translate(86, 354.44921875)"><g id="sy_4_cu_zrjnbz1f4cg7f-stroke" fill="none" stroke-linecap="round" stroke-linejoin="round" stroke-miterlimit="4" stroke="#ffffff" stroke-width="2"><g><path d="M 38.3896 16.3626C 52.9728 11.2737 70.1232 10 82 10C 93.8806 10 111.0305 11.2735 125.6124 16.3619C 130.2607 17.984 134.6481 19.9937 138.5206 22.4734C 147.7096 28.3574 154 36.8877 154 49.1641C 154 82.9093 106.6676 88.2344 82 88.2344C 57.4378 88.2344 10 82.7685 10 49.1641C 10 36.8495 16.331 28.3043 25.5679 22.4185C 29.4194 19.9644 33.776 17.9726 38.3896 16.3626ZM 82 82C 57.1472 82 37 75.9558 37 68.5C 37 67.2533 37.5633 66.0461 38.6177 64.9C 43.8692 59.1919 61.3028 55 82 55C 102.6972 55 120.1308 59.1919 125.3823 64.9C 126.4367 66.0461 127 67.2533 127 68.5C 127 75.9558 106.8528 82 82 82ZM 125.3823 64.9C 126.4367 66.0461 127 67.2533 127 68.5C 127 75.9558 106.8528 82 82 82C 57.1472 82 37 75.9558 37 68.5C 37 67.2533 37.5633 66.0461 38.6177 64.9C 43.8692 59.1919 61.3028 55 82 55C 102.6972 55 120.1308 59.1919 125.3823 64.9Z"></path></g></g></g><g id="g-root-sy_3_cu_mgpm1r1f4cemk-stroke" data-item-order="-115834" transform="translate(62, 270.44921875)"><g id="sy_3_cu_mgpm1r1f4cemk-stroke" fill="none" stroke-linecap="round" stroke-linejoin="round" stroke-miterlimit="4" stroke="#ffffff" stroke-width="2"><g><path d="M 166 88C 166 86.3377 165.2489 84.7281 163.8431 83.2C 156.8411 75.5892 133.5962 70 106 70C 78.4038 70 55.1589 75.5892 48.1569 83.2C 46.7511 84.7281 46 86.3377 46 88C 46 92.7873 52.2296 97.1381 62.3896 100.3626C 76.9728 95.2737 94.1232 94 106 94C 117.8806 94 135.0305 95.2735 149.6124 100.3619C 159.7712 97.1375 166 92.787 166 88ZM 163.8431 83.2C 165.2489 84.7281 166 86.3377 166 88C 166 92.787 159.7712 97.1375 149.6124 100.3619C 154.2607 101.984 158.6481 103.9937 162.5206 106.4734C 184.1675 99.3457 202 86.1359 202 62.2188C 202 43.1964 190.6728 30.9199 175.1161 23.0874C 169.3823 20.2005 163.0739 17.9173 156.5464 16.1227C 138.975 11.2916 119.8155 10 106 10C 92.1888 10 73.0291 11.2918 55.4565 16.1234C 48.9764 17.9051 42.7122 20.1682 37.0116 23.0253C 21.3896 30.855 10 43.1462 10 62.2188C 10 86.0481 27.8903 99.2655 49.5679 106.4185C 53.4194 103.9644 57.776 101.9726 62.3896 100.3626C 52.2296 97.1381 46 92.7873 46 88C 46 86.3377 46.7511 84.7281 48.1569 83.2C 55.1589 75.5892 78.4038 70 106 70C 133.5962 70 156.8411 75.5892 163.8431 83.2Z"></path></g></g></g><g id="g-root-sy_2_cu_9593of1f4cg7h-stroke" data-item-order="-115830" transform="translate(38, 162.44921875)"><g id="sy_2_cu_9593of1f4cg7h-stroke" fill="none" stroke-linecap="round" stroke-linejoin="round" stroke-miterlimit="4" stroke="#ffffff" stroke-width="2"><g><path d="M 205 107.5C 205 105.4222 204.0612 103.4102 202.3038 101.5C 193.5514 91.9864 164.4953 85 130 85C 95.5047 85 66.4486 91.9864 57.6962 101.5C 55.9388 103.4102 55 105.4222 55 107.5C 55 114.0847 64.4286 120.0088 79.4565 124.1234C 97.0291 119.2918 116.1888 118 130 118C 143.8155 118 162.975 119.2916 180.5464 124.1227C 195.5726 120.008 205 114.0843 205 107.5ZM 202.3038 101.5C 204.0612 103.4102 205 105.4222 205 107.5C 205 114.0843 195.5726 120.008 180.5464 124.1227C 187.0739 125.9173 193.3823 128.2005 199.1161 131.0874C 226.8613 122.2997 250 105.7333 250 75.2734C 250 49.3826 233.2127 33.4891 211.0921 23.8787C 203.4167 20.5441 195.0993 17.966 186.6182 15.9891C 166.5482 11.311 145.5619 10 130 10C 114.4428 10 93.4567 11.3112 73.3854 15.99C 64.9643 17.953 56.7042 20.5088 49.0738 23.8093C 26.8718 33.4126 10 49.3203 10 75.2734C 10 105.6269 33.2219 122.2058 61.0116 131.0253C 66.7122 128.1682 72.9764 125.9051 79.4565 124.1234C 64.4286 120.0088 55 114.0847 55 107.5C 55 105.4222 55.9388 103.4102 57.6962 101.5C 66.4486 91.9864 95.5047 85 130 85C 164.4953 85 193.5514 91.9864 202.3038 101.5Z"></path></g></g></g><g id="g-root-sy_1_cu_1uljizj1f4dszy-stroke" data-item-order="-115826" transform="translate(14, 30.44921875)"><g id="sy_1_cu_1uljizj1f4dszy-stroke" fill="none" stroke-linecap="round" stroke-linejoin="round" stroke-miterlimit="4" stroke="#ffffff" stroke-width="2"><g><path d="M 244 127C 244 124.5066 242.8734 122.0922 240.7646 119.8C 230.2616 108.3837 195.3944 100 154 100C 112.6056 100 77.7383 108.3837 67.2354 119.8C 65.1266 122.0922 64 124.5066 64 127C 64 135.4761 77.0191 143.0399 97.3854 147.99C 117.4567 143.3112 138.4428 142 154 142C 169.5619 142 190.5482 143.311 210.6182 147.9891C 230.9824 143.039 244 135.4756 244 127ZM 240.7646 119.8C 242.8734 122.0922 244 124.5066 244 127C 244 135.4756 230.9824 143.039 210.6182 147.9891C 219.0993 149.966 227.4167 152.5441 235.0921 155.8787C 269.2002 145.4871 298 125.5539 298 88.3281C 298 61.4308 282.9019 43.525 261.6239 31.7186C 254.2589 27.632 246.1534 24.2762 237.6775 21.5312C 209.3155 12.346 176.8043 10 154 10C 131.2027 10 98.6905 12.3464 70.3262 21.5326C 61.9157 24.2565 53.87 27.5817 46.5503 31.6254C 25.1809 43.4308 10 61.3601 10 88.3281C 10 125.4274 38.9089 145.3788 73.0738 155.8093C 80.7042 152.5088 88.9643 149.953 97.3854 147.99C 77.0191 143.0399 64 135.4761 64 127C 64 124.5066 65.1266 122.0922 67.2354 119.8C 77.7383 108.3837 112.6056 100 154 100C 195.3944 100 230.2616 108.3837 240.7646 119.8Z"></path></g></g></g><g id="g-root-ic_1_zrjnbz1f4dudd-stroke" data-item-order="0" transform="translate(326, 30.44921875)"><g id="ic_1_zrjnbz1f4dudd-stroke" fill="none" stroke-linecap="round" stroke-linejoin="round" stroke-miterlimit="4" stroke="#1eabda" stroke-width="2"><g><path d="M 46.65234 55.373466C 46.549374 55.778458 46.205425 56.076706 45.789944 56.121284C 45.374458 56.165867 44.975067 55.947372 44.788525 55.573448L 37.339268 40.676937C 37.146351 40.291878 37.221672 39.826553 37.526215 39.522011C 37.830753 39.217472 38.296078 39.142155 38.681137 39.335072L 53.577648 46.796326C 53.951576 46.982864 54.170067 47.382259 54.125484 47.797745C 54.080906 48.21323 53.782654 48.557175 53.37767 48.660141L 47.996204 49.996006ZM 33.997604 27.498253C 34.27372 27.498253 34.497555 27.722088 34.497555 27.998203C 34.497555 28.274317 34.27372 28.498154 33.997604 28.498154C 33.721489 28.498154 33.497654 28.274317 33.497654 27.998203C 33.497654 27.722088 33.721489 27.498253 33.997604 27.498253M 21.998802 27.498253C 22.274916 27.498253 22.498753 27.722088 22.498753 27.998203C 22.498753 28.274317 22.274916 28.498154 21.998802 28.498154C 21.722687 28.498154 21.498852 28.274317 21.498852 27.998203C 21.498852 27.722088 21.722687 27.498253 21.998802 27.498253M 45.996407 27.498253C 46.272522 27.498253 46.496357 27.722088 46.496357 27.998203C 46.496357 28.274317 46.272522 28.498154 45.996407 28.498154C 45.720291 28.498154 45.496456 28.274317 45.496456 27.998203C 45.496456 27.722088 45.720291 27.498253 45.996407 27.498253M 30.997904 36.997303L 14.999501 36.997303C 12.790583 36.997303 10.9999 35.206623 10.9999 32.997704L 10.9999 22.998703C 10.9999 20.789783 12.790583 18.999102 14.999501 18.999102L 52.995708 18.999102C 55.204628 18.999102 56.995308 20.789783 56.995308 22.998703L 56.995308 32.997704C 56.995308 35.206623 55.204628 36.997303 52.995708 36.997303L 44.996506 36.997303"></path></g></g></g><g id="g-root-tx_fillinde_18f2hgf1f4dszk-stroke" data-item-order="0" transform="translate(397.9951171875, 42.44921875)"></g><g id="g-root-tx_userprov_1q5q0v31f4dts7-stroke" data-item-order="0" transform="translate(398.396484375, 77.96484375)"></g><g id="g-root-ic_writ_18gbisf1f3srgi-stroke" data-item-order="0" transform="translate(326, 150.44921875)"><g id="ic_writ_18gbisf1f3srgi-stroke" fill="none" stroke-linecap="round" stroke-linejoin="round" stroke-miterlimit="4" stroke="#3cc583" stroke-width="2"><g><path d="M 37.997204 50.995907L 12.999701 50.995907C 11.895241 50.995907 10.9999 50.100563 10.9999 48.996105L 10.9999 12.999701C 10.9999 11.895241 11.895241 10.9999 12.999701 10.9999L 40.996906 10.9999C 42.101364 10.9999 42.996704 11.895241 42.996704 12.999701L 42.996704 24.998503M 22.998703 16.999302L 34.997505 16.999302M 22.998703 22.998703L 34.997505 22.998703M 22.998703 28.998102L 27.998203 28.998102M 16.999302 16.499352C 17.275415 16.499352 17.49925 16.723186 17.49925 16.999302C 17.49925 17.275415 17.275415 17.49925 16.999302 17.49925C 16.723186 17.49925 16.499352 17.275415 16.499352 16.999302C 16.499352 16.723186 16.723186 16.499352 16.999302 16.499352M 16.999302 22.498753C 17.275415 22.498753 17.49925 22.722588 17.49925 22.998703C 17.49925 23.274817 17.275415 23.498652 16.999302 23.498652C 16.723186 23.498652 16.499352 23.274817 16.499352 22.998703C 16.499352 22.722588 16.723186 22.498753 16.999302 22.498753M 16.999302 28.498154C 17.275415 28.498154 17.49925 28.721989 17.49925 28.998102C 17.49925 29.274218 17.275415 29.498053 16.999302 29.498053C 16.723186 29.498053 16.499352 29.274218 16.499352 28.998102C 16.499352 28.721989 16.723186 28.498154 16.999302 28.498154M 44.836521 30.337969C 44.836521 30.337969 43.636642 28.338169 39.617043 29.41806C 33.83762 30.857918 32.417763 37.277279 32.297771 38.017204M 29.178085 39.937012L 25.618441 45.63644L 32.297771 45.056499M 40.436962 39.997005L 51.055901 33.497654C 52.159687 32.541027 52.413975 30.928423 51.658127 29.678553C 50.902271 28.42868 49.356045 27.90493 47.996204 28.43816L 29.178085 39.997005L 32.297771 45.116493L 35.997406 42.816723M 46.196388 41.776829L 38.577148 39.517052C 37.779697 39.219566 36.882938 39.391071 36.251541 39.961826C 35.62014 40.532581 35.359264 41.407528 35.574993 42.230865C 35.790718 43.054207 36.447124 43.688808 37.277275 43.876617L 42.076797 45.456459C 42.525417 48.144642 44.571259 50.285641 47.236282 50.855923L 47.416264 50.855923L 47.996204 56.995308M 56.995308 56.995308C 56.995308 56.995308 54.735535 39.417065 49.116093 34.757526"></path></g></g></g><g id="g-root-tx_typemess_4hbffj1f4duki-stroke" data-item-order="0" transform="translate(397.9951171875, 162.44921875)"></g><g id="g-root-tx_userspec_m8lfxb1f4ds7d-stroke" data-item-order="0" transform="translate(398.396484375, 197.962890625)"></g><g id="g-root-ic_emai_vah71b1f4dszk-stroke" data-item-order="0" transform="translate(326, 270.44921875)"><g id="ic_emai_vah71b1f4dszk-stroke" fill="none" stroke-linecap="round" stroke-linejoin="round" stroke-miterlimit="4" stroke="#92bd39" stroke-width="2"><g><path d="M 29.952293 47.710522L 37.425835 55.149776C 38.358822 56.106033 39.728127 56.497265 41.025475 56.178246C 42.330261 55.874916 43.382633 54.91349 43.802338 53.641354L 56.075397 16.856459C 56.598469 15.448945 56.253063 13.865677 55.191296 12.80391C 54.129532 11.742144 52.546261 11.396739 51.138748 11.919808L 14.353851 24.192867C 13.036192 24.642939 12.065454 25.771093 11.816961 27.141146C 11.5611 28.384148 11.9476 29.672483 12.84543 30.569376L 22.238777 39.962723L 21.930237 51.858677ZM 54.978367 12.674019L 22.238777 39.962723"></path></g></g></g><g id="g-root-tx_submitre_zlawgv1f4dssk-stroke" data-item-order="0" transform="translate(397.9951171875, 282.44921875)"></g><g id="g-root-tx_usersend_1hbyfvj1f4dtl7-stroke" data-item-order="0" transform="translate(398.396484375, 317.962890625)"></g><g id="g-root-ic_chec_1hdtv4v1f4dslj-stroke" data-item-order="0" transform="translate(326, 390.44921875)"><g id="ic_chec_1hdtv4v1f4dslj-stroke" fill="none" stroke-linecap="round" stroke-linejoin="round" stroke-miterlimit="4" stroke="#e0cb15" stroke-width="2"><g><path d="M 56.281094 37.425835L 42.568176 56.281094L 33.997604 49.424633M 28.855261 42.568176L 15.142344 42.568176C 13.248985 42.568176 11.714114 41.033306 11.714114 39.139946L 11.714114 15.142344C 11.714114 13.248985 13.248985 11.714114 15.142344 11.714114L 49.424633 11.714114C 51.317993 11.714114 52.852863 13.248985 52.852863 15.142344L 52.852863 28.855261M 11.714114 16.033684L 32.283489 30.569374L 52.852863 16.033684"></path></g></g></g><g id="g-root-tx_receiveu_1uonwf31f4du6e-stroke" data-item-order="0" transform="translate(397.9951171875, 402.44921875)"></g><g id="g-root-tx_userrece_de7dun1f4dv65-stroke" data-item-order="0" transform="translate(398.396484375, 437.962890625)"></g></g></g><path id="w1ur658g1li08w0" d="M65.283 12.757a.35.35 0 0 0 .584.157l5.203-5.141-6.183 3.523.396 1.461zm-2.216-11.7a.35.35 0 0 0-.522.305v3.111l3.276-1.868-2.754-1.548zm3.728 2.105l-4.25 2.421v2.445l6.391-3.644-2.141-1.222zm4.708 3.303a.35.35 0 0 0 0-.609l-1.592-.9-7.365 4.199v1.782a.35.35 0 0 0 .523.305l8.435-4.777z M44.542 2.513c0-.433.355-.783.792-.783s.792.35.792.783-.355.783-.792.783-.792-.35-.792-.783zm59.171 0c0-.433.355-.783.792-.783s.792.35.792.783-.355.783-.792.783-.792-.35-.792-.783zm-85.951 7.636h-1.27v-.487c-.276.201-.864.609-1.881.609-1.202 0-2.274-.794-2.137-2.078.118-1.106 1.153-1.584 1.848-1.727l2.17-.345c0-.539-.29-.956-1.064-1.006s-1.21.305-1.571 1.017l-1.124-.605c1.218-2.631 5.029-1.764 5.029.414v4.207zm-1.27-2.86c.006.396-.062 1.112-.819 1.59-.587.37-1.841.299-1.903-.395-.049-.555.461-.791.906-.898l1.816-.297zm72.662 2.86h-1.27v-.487c-.276.201-.864.609-1.881.609-1.202 0-2.274-.794-2.137-2.078.118-1.106 1.153-1.584 1.848-1.727l2.17-.345c0-.539-.29-.956-1.064-1.006s-1.21.305-1.571 1.017l-1.124-.605c1.218-2.631 5.029-1.764 5.029.414v4.207zm-1.27-2.86c.006.396-.062 1.112-.82 1.59-.587.37-1.841.299-1.903-.395-.049-.555.461-.791.906-.898l1.816-.297zM99.096 10.149H97.85v-8.45h1.246v4.895l2.68-2.559h1.738l-2.633 2.535 2.715 3.578h-1.556l-2.077-2.707-.867.844v1.863zm6.053-6.114h-1.255v6.113h1.255V4.035zm-59.2 0h-1.255v6.113h1.255V4.035zm5.584 6.113V1.697h1.255v2.695c.361-.346 1-.485 1.47-.485 1.452 0 2.477 1.082 2.457 2.448v3.792h-1.27v-3.68c0-.408-.214-1.339-1.315-1.339-.968 0-1.342.756-1.342 1.339v3.681h-1.255zm-4.76-4.894V4.039h.621a.45.45 0 0 0 .45-.45v-.855h1.251v1.305h1.309v1.215h-1.309v3.109c0 .293.105.664.648.664.365 0 .531-.035.736-.07v1.137s-.361.113-.857.113c-1.398 0-1.777-1.051-1.777-1.788V5.254h-1.071zM36.528 4.039h-1.394l2.191 6.106h1.125l1.234-3.918 1.238 3.918h1.129l2.188-6.106h-1.383l-1.359 3.93-1.256-3.93h-1.124l-1.242 3.957-1.348-3.957zM26.212 7.141c-.02 1.566 1.187 3.129 3.223 3.129 1.566 0 2.383-.918 2.734-1.719L31.172 8c-.315.399-.801 1.094-1.738 1.094-1.145 0-1.825-.781-1.891-1.52h4.625c.074-.284.148-.995-.03-1.559-.336-1.064-1.221-2.102-2.839-2.102s-3.088 1.152-3.088 3.227zm1.363-.75h3.348c-.055-.43-.566-1.301-1.623-1.301a1.79 1.79 0 0 0-1.725 1.301zm-8.758.75c.038 1.758 1.277 3.133 3.145 3.133 1.074 0 1.723-.477 1.961-.672v.547h1.242V1.703h-1.258v2.888c-.414-.36-1.062-.68-1.93-.68-1.91 0-3.198 1.473-3.16 3.23zm1.309-.08c0 1.119.723 1.978 1.836 1.978a1.88 1.88 0 0 0 1.94-1.904c0-1.371-1.011-1.99-1.972-1.99s-1.805.798-1.805 1.916zm76.683-.028C96.771 5.275 95.532 3.9 93.664 3.9c-1.074 0-1.723.477-1.961.672v-.547h-1.242v8.22h1.258V9.583c.414.36 1.063.68 1.93.68 1.91 0 3.198-1.473 3.16-3.23zm-1.309.08c0-1.119-.723-1.978-1.836-1.978a1.88 1.88 0 0 0-1.94 1.904c0 1.371 1.011 1.99 1.972 1.99S95.5 8.231 95.5 7.113zM106.441 10.173V4.036h1.254v.382c.361-.346 1-.485 1.47-.485 1.452 0 2.477 1.082 2.457 2.448v3.792h-1.27V6.492c0-.408-.214-1.339-1.315-1.339-.969 0-1.342.756-1.342 1.339v3.681h-1.254zm-30.383-.021V1.824h1.084l4.215 5.777V1.824h1.32v8.328h-1.094l-4.207-5.796v5.796h-1.319zM5.24 10.149H4V2.377h1.014l2.664 3.597 2.654-3.592h1.03v7.766h-1.256V4.762L7.678 8.068 5.24 4.742v5.407z" transform="translate(20, 507.962890625)" fill="#80808088" stroke="none"></path></svg>